<svg width="500" height="351" viewBox="0 0 500 351" fill="none" xmlns="http://www.w3.org/2000/svg">
<path d="M92.64 317.846L77.8 318.126L70.29 318.246C67.78 318.246 65.29 318.246 62.74 318.246H62.3V317.796V305.166V304.706H62.8L77.75 304.776C82.75 304.776 87.75 304.886 92.75 304.936H93.02V305.206C93.02 307.346 92.93 309.476 92.89 311.586L92.64 317.846ZM92.64 317.846L92.49 311.476C92.49 309.376 92.38 307.286 92.36 305.216L92.64 305.486C87.64 305.546 82.64 305.646 77.64 305.656L62.74 305.706L63.24 305.206L63.19 317.836L62.74 317.396C65.21 317.396 67.67 317.396 70.14 317.446L77.57 317.566L92.64 317.846Z" fill="#EBEBEB"/>
<path d="M76 60.4159L61.13 60.7059L53.61 60.8159C51.1 60.8159 48.61 60.8159 46.06 60.8759H45.62V60.4259L45.56 47.7959V47.2959H46.06L61 47.3459C66 47.3459 71 47.4659 75.95 47.5159H76.22V47.7859C76.22 49.9259 76.14 52.0559 76.09 54.1659L76 60.4159ZM76 60.4159L75.86 54.0459C75.86 51.9459 75.75 49.8559 75.73 47.7859L76 48.0559C71 48.0559 66 48.2159 61.05 48.2259L46.1 48.2859L46.6 47.7859L46.55 60.4159L46.1 59.9759C48.57 59.9759 51.03 59.9759 53.5 59.9759L60.94 60.0959L76 60.4159Z" fill="#EBEBEB"/>
<path d="M453.94 60.4159L439.1 60.7059L431.59 60.8159C429.08 60.8159 426.59 60.8159 424.04 60.8759H423.6V60.4259V47.7959V47.2959H424.1L439.05 47.3559C444.05 47.3559 449.05 47.4759 454 47.5259H454.27V47.7959C454.27 49.9359 454.18 52.0659 454.14 54.1759L453.94 60.4159ZM453.94 60.4159L453.8 54.0459C453.75 51.9459 453.68 49.8559 453.66 47.7859L453.94 48.0559C448.94 48.0559 443.94 48.2159 438.99 48.2259L424 48.2859L424.5 47.7859L424.45 60.4159L424 59.9759C426.47 59.9759 428.93 59.9759 431.4 59.9759L438.83 60.0959L453.94 60.4159Z" fill="#EBEBEB"/>
<path d="M437.26 76.3459L422.43 76.6259L414.91 76.7359C412.4 76.7359 409.91 76.7359 407.36 76.7959H406.92V76.3459L406.86 63.7059V63.2059H407.36L422.31 63.2659C427.31 63.2659 432.31 63.3859 437.26 63.4359H437.54V63.7059C437.54 65.8459 437.46 67.9759 437.41 70.0859L437.26 76.3459ZM437.26 76.3459L437.12 69.9759C437.07 67.8659 437.01 65.7859 436.99 63.7159L437.26 63.9859C432.26 63.9859 427.26 64.1459 422.31 64.1559L407.36 64.2159L407.86 63.7159L407.81 76.3459L407.36 75.9059C409.83 75.9059 412.29 75.9059 414.76 75.9059L422.2 76.0259L437.26 76.3459Z" fill="#EBEBEB"/>
<path d="M360.69 224.146L345.86 224.426L338.34 224.536C335.83 224.536 333.34 224.536 330.8 224.536H330.35V224.086L330.3 211.446V210.946H330.81L345.75 211.016C350.75 211.016 355.75 211.126 360.7 211.176H361V211.446C361 213.586 360.92 215.716 360.87 217.826L360.69 224.146ZM360.69 224.146L360.55 217.766C360.5 215.666 360.44 213.586 360.42 211.506L360.69 211.786C355.69 211.786 350.69 211.946 345.74 211.946L330.8 212.006L331.29 211.506L331.24 224.146L330.8 223.696C333.26 223.696 335.72 223.696 338.19 223.756L345.63 223.866L360.69 224.146Z" fill="#EBEBEB"/>
<path d="M344 240.076L329.17 240.356L321.66 240.466C319.15 240.516 316.66 240.466 314.11 240.516H313.66V240.066L313.61 227.426V226.926H314.11L329.06 226.996C334.06 226.996 339.06 227.106 344 227.156H344.28V227.426C344.28 229.566 344.19 231.696 344.15 233.806L344 240.076ZM344 240.076L343.86 233.696C343.86 231.596 343.75 229.516 343.73 227.436L344 227.716C339 227.766 334 227.876 329.06 227.876L314.11 227.936L314.61 227.436L314.55 240.076L314.11 239.626C316.57 239.626 319.04 239.626 321.51 239.686L328.94 239.796L344 240.076Z" fill="#EBEBEB"/>
<path d="M327.4 224.146L312.57 224.426L305.06 224.536C302.55 224.536 300.06 224.536 297.51 224.536H297.06V224.086L297 211.506V211.006H297.51L312.45 211.076C317.45 211.076 322.45 211.186 327.4 211.236H327.68V211.506C327.68 213.646 327.59 215.776 327.55 217.886L327.4 224.146ZM327.4 224.146L327.26 217.766C327.26 215.666 327.15 213.586 327.13 211.506L327.4 211.786C322.4 211.786 317.4 211.946 312.45 211.946L297.51 212.006L298.01 211.506L298 224.146L297.56 223.696C300.02 223.696 302.48 223.696 304.96 223.756L312.39 223.866L327.4 224.146Z" fill="#EBEBEB"/>
<path d="M453.94 333.776L439.1 334.056L431.59 334.176C429.08 334.176 426.59 334.176 424.04 334.176H423.6V333.726V321.096V320.596H424.1L439 320.706C444 320.706 449 320.826 453.95 320.876H454.22V321.146C454.22 323.286 454.13 325.416 454.09 327.526L453.94 333.776ZM453.94 333.776L453.8 327.406C453.75 325.306 453.68 323.216 453.66 321.146L453.94 321.416C448.94 321.476 443.94 321.576 438.99 321.586L424.04 321.646L424.54 321.146L424.49 333.776L424.04 333.336C426.51 333.336 428.97 333.336 431.44 333.386L438.87 333.506L453.94 333.776Z" fill="#EBEBEB"/>
<path d="M423.23 181.706L429.11 172.216L426.21 170.416C425.793 170.154 425.456 169.782 425.237 169.341C425.019 168.9 424.926 168.406 424.97 167.916C425.02 167.361 425.04 166.803 425.03 166.246C425.015 165.756 425.135 165.271 425.379 164.846C425.623 164.42 425.98 164.071 426.41 163.836L429.41 162.226L424.13 152.376L421.13 153.996C420.696 154.224 420.208 154.328 419.72 154.296C419.231 154.264 418.76 154.098 418.36 153.816C417.902 153.498 417.428 153.204 416.94 152.936C416.507 152.703 416.146 152.354 415.899 151.929C415.652 151.503 415.528 151.018 415.54 150.526L415.65 147.106L404.48 146.706L404.38 150.136C404.358 150.627 404.201 151.103 403.925 151.511C403.65 151.918 403.268 152.242 402.82 152.446C402.58 152.556 402.33 152.686 402.09 152.816C401.85 152.946 401.61 153.076 401.38 153.216C400.962 153.473 400.481 153.61 399.99 153.61C399.499 153.61 399.018 153.473 398.6 153.216L395.67 151.406L389.79 160.896L392.7 162.706C393.116 162.968 393.451 163.341 393.669 163.782C393.886 164.223 393.976 164.716 393.93 165.206C393.878 165.758 393.862 166.312 393.88 166.866C393.891 167.356 393.767 167.84 393.522 168.265C393.277 168.69 392.92 169.04 392.49 169.276L389.49 170.886L394.77 180.736L397.77 179.116C398.204 178.888 398.692 178.784 399.18 178.816C399.669 178.848 400.14 179.014 400.54 179.296C400.998 179.614 401.472 179.907 401.96 180.176C402.393 180.407 402.753 180.754 403 181.178C403.247 181.601 403.372 182.085 403.36 182.576L403.25 186.006L414.42 186.356L414.52 182.926C414.541 182.437 414.696 181.963 414.97 181.557C415.244 181.151 415.624 180.829 416.07 180.626L416.81 180.246C417.06 180.116 417.3 179.986 417.53 179.846C417.95 179.589 418.433 179.452 418.925 179.452C419.417 179.452 419.9 179.589 420.32 179.846L423.23 181.706ZM413.77 174.656C412.176 175.507 410.365 175.867 408.567 175.689C406.768 175.512 405.063 174.806 403.666 173.659C402.269 172.513 401.243 170.978 400.718 169.249C400.193 167.52 400.193 165.674 400.717 163.944C401.241 162.214 402.265 160.679 403.662 159.532C405.058 158.384 406.763 157.677 408.561 157.498C410.36 157.32 412.17 157.678 413.765 158.529C415.36 159.379 416.666 160.683 417.52 162.276C418.657 164.412 418.9 166.911 418.197 169.226C417.494 171.541 415.902 173.483 413.77 174.626V174.656Z" fill="#EBEBEB"/>
<path opacity="0.5" d="M101.53 289.216L107.42 279.726L104.51 277.926C104.094 277.664 103.759 277.291 103.541 276.85C103.324 276.408 103.234 275.916 103.28 275.426C103.31 274.87 103.31 274.312 103.28 273.756C103.267 273.265 103.389 272.78 103.635 272.355C103.88 271.929 104.238 271.58 104.67 271.346L107.67 269.736L102.39 259.886L99.39 261.506C98.9546 261.734 98.465 261.837 97.9747 261.805C97.4845 261.774 97.0123 261.608 96.61 261.326C96.1547 261.004 95.6805 260.711 95.19 260.446C94.758 260.211 94.399 259.862 94.152 259.437C93.9051 259.012 93.7799 258.527 93.79 258.036L93.9 254.616L82.74 254.266L82.64 257.696C82.6198 258.189 82.4633 258.667 82.1879 259.076C81.9125 259.486 81.529 259.811 81.08 260.016C80.83 260.126 80.59 260.256 80.34 260.386C80.09 260.516 79.86 260.646 79.63 260.786C79.214 261.044 78.7343 261.18 78.245 261.18C77.7556 261.18 77.276 261.044 76.86 260.786L74 258.996L68.11 268.486L71 270.296C71.4177 270.556 71.7543 270.929 71.9716 271.37C72.189 271.812 72.2785 272.306 72.23 272.796C72.23 273.346 72.17 273.896 72.23 274.456C72.2433 274.947 72.1205 275.432 71.8752 275.857C71.6298 276.282 71.2715 276.632 70.84 276.866L67.84 278.476L73.12 288.326L76.12 286.706C76.5553 286.478 77.0449 286.375 77.5352 286.406C78.0255 286.438 78.4976 286.604 78.9 286.886C79.352 287.204 79.8229 287.495 80.31 287.756C80.7419 287.991 81.101 288.339 81.3479 288.765C81.5948 289.19 81.7201 289.674 81.71 290.166L81.61 293.596L92.77 293.936L92.88 290.516C92.9 290.025 93.0554 289.55 93.3289 289.142C93.6025 288.734 93.9836 288.41 94.43 288.206C94.68 288.096 94.92 287.966 95.17 287.836C95.42 287.706 95.65 287.576 95.88 287.426C96.299 287.166 96.7821 287.029 97.275 287.029C97.7678 287.029 98.2509 287.166 98.67 287.426L101.53 289.216ZM92.08 282.166C90.485 283.022 88.672 283.386 86.8703 283.211C85.0686 283.036 83.3592 282.331 81.9583 281.185C80.5573 280.039 79.5279 278.503 79.0003 276.771C78.4726 275.04 78.4703 273.19 78.9938 271.458C79.5173 269.725 80.543 268.186 81.9411 267.036C83.3392 265.887 85.0469 265.177 86.8482 264.999C88.6495 264.82 90.4634 265.179 92.0604 266.031C93.6574 266.883 94.9658 268.19 95.82 269.786C96.3879 270.844 96.7417 272.004 96.8611 273.199C96.9805 274.394 96.8632 275.601 96.5158 276.751C96.1685 277.901 95.5979 278.971 94.8368 279.9C94.0757 280.829 93.1389 281.599 92.08 282.166Z" fill="#EBEBEB"/>
<path d="M215.87 107.446L212 100.706L209.92 101.906C209.621 102.077 209.28 102.161 208.935 102.149C208.59 102.136 208.256 102.028 207.97 101.836C207.647 101.625 207.313 101.432 206.97 101.256C206.668 101.099 206.414 100.863 206.238 100.572C206.061 100.28 205.969 99.9463 205.97 99.6059V97.2059H198.15V99.6059C198.149 99.9458 198.055 100.279 197.879 100.57C197.703 100.861 197.451 101.098 197.15 101.256C196.8 101.436 196.46 101.626 196.15 101.836C195.858 102.038 195.515 102.152 195.16 102.165C194.806 102.177 194.455 102.087 194.15 101.906L192 100.706L188.09 107.486L190.17 108.686C190.466 108.86 190.709 109.113 190.869 109.417C191.03 109.72 191.103 110.063 191.08 110.406C191.08 110.596 191.08 110.796 191.08 110.986C191.08 111.176 191.08 111.366 191.08 111.566C191.106 111.907 191.035 112.248 190.876 112.55C190.716 112.853 190.475 113.104 190.18 113.276L188.09 114.486L192 121.266L194.08 120.066C194.379 119.895 194.72 119.811 195.065 119.823C195.409 119.835 195.744 119.944 196.03 120.136C196.353 120.347 196.687 120.54 197.03 120.716C197.331 120.874 197.583 121.111 197.759 121.402C197.935 121.693 198.029 122.026 198.03 122.366V124.706H205.85V122.306C205.849 121.965 205.941 121.631 206.118 121.34C206.294 121.049 206.548 120.812 206.85 120.656C207.2 120.476 207.53 120.286 207.85 120.076C208.136 119.884 208.47 119.775 208.815 119.763C209.16 119.751 209.501 119.835 209.8 120.006L211.88 121.206L215.79 114.426L213.71 113.226C213.413 113.052 213.171 112.799 213.011 112.495C212.85 112.191 212.777 111.849 212.8 111.506C212.8 111.316 212.8 111.116 212.8 110.926C212.8 110.736 212.8 110.536 212.8 110.346C212.777 110.003 212.85 109.66 213.011 109.357C213.171 109.053 213.413 108.8 213.71 108.626L215.87 107.446ZM208.39 110.946C208.39 112.214 208.014 113.453 207.31 114.507C206.605 115.561 205.604 116.383 204.433 116.868C203.262 117.353 201.973 117.48 200.729 117.233C199.486 116.985 198.344 116.375 197.447 115.478C196.551 114.582 195.94 113.44 195.693 112.196C195.446 110.953 195.573 109.664 196.058 108.493C196.543 107.322 197.365 106.32 198.419 105.616C199.473 104.912 200.712 104.536 201.98 104.536C203.68 104.536 205.31 105.211 206.513 106.413C207.715 107.615 208.39 109.246 208.39 110.946Z" fill="#EBEBEB"/>
<path d="M157.57 228.376L151.36 203.946L102.36 216.416L95.88 190.916L135 101.596L154.47 96.7058L173.37 171.066L189.06 167.066L195.59 192.706L179.9 196.706L186.1 221.136L157.57 228.376ZM124 183.576L148.26 177.406L140.26 145.846L124 183.576Z" fill="#003459"/>
<path d="M298 146.826C298.079 154.433 296.834 161.996 294.32 169.176C292.066 175.64 288.635 181.631 284.2 186.846C280.004 191.735 274.825 195.684 269 198.436C263.056 201.219 256.563 202.633 250 202.576C243.392 202.633 236.854 201.219 230.86 198.436C225.009 195.694 219.804 191.744 215.59 186.846C211.173 181.639 207.78 175.643 205.59 169.176C203.131 161.984 201.917 154.426 202 146.826C201.916 139.223 203.13 131.661 205.59 124.466C207.782 118.002 211.175 112.011 215.59 106.806C219.814 101.895 225.015 97.9175 230.86 95.1259C236.838 92.286 243.382 90.8397 250 90.8959C256.573 90.8392 263.072 92.2861 269 95.1259C274.812 97.9301 279.98 101.907 284.18 106.806C288.612 112.019 292.043 118.006 294.3 124.466C296.821 131.648 298.073 139.214 298 146.826ZM268.38 146.826C268.38 138.239 266.663 131.279 263.23 125.946C259.797 120.613 255.38 117.946 249.98 117.946C244.34 117.946 239.833 120.613 236.46 125.946C233.087 131.279 231.4 138.239 231.4 146.826C231.4 155.413 233.087 162.343 236.46 167.616C239.833 172.889 244.347 175.526 250 175.526C255.4 175.526 259.817 172.889 263.25 167.616C266.683 162.343 268.4 155.413 268.4 146.826H268.38Z" fill="#003459"/>
<path d="M350.84 223.706L354.84 198.826L304.93 190.706L309.14 164.706L380.64 98.3759L400.44 101.586L388.17 177.326L404.17 179.916L399.94 206.066L383.94 203.476L379.94 228.356L350.84 223.706ZM337.84 169.236L362.54 173.236L367.75 141.086L337.84 169.236Z" fill="#003459"/>
<path d="M115.69 56.0453C115.69 56.7353 115.13 57.2953 114.44 57.2953C113.751 57.2953 113.185 56.7353 113.185 56.0453C113.185 55.3553 113.74 54.7953 114.43 54.7953H114.44C115.13 54.7953 115.69 55.3553 115.69 56.0453ZM122.44 54.7953H122.43C121.74 54.7953 121.185 55.3553 121.185 56.0453C121.185 56.7353 121.75 57.2953 122.44 57.2953C123.13 57.2953 123.69 56.7353 123.69 56.0453C123.69 55.3553 123.13 54.7953 122.44 54.7953ZM127.125 43.5374L126.111 49.7034C125.848 51.1494 125.194 52.7953 122.42 52.7953H114.154C112.795 52.7953 111.624 51.7804 111.432 50.4344L109.922 39.8694C109.834 39.2574 109.303 38.7964 108.685 38.7964H108.42C108.006 38.7964 107.67 38.4604 107.67 38.0464C107.67 37.6324 108.006 37.2964 108.42 37.2964H108.686C110.045 37.2964 111.216 38.3113 111.408 39.6573L111.5 40.2964H124.42C125.238 40.2964 126.008 40.6563 126.532 41.2843C127.055 41.9113 127.272 42.7334 127.125 43.5374ZM124.633 49.4483L124.74 48.7953H118.42C118.006 48.7953 117.67 48.4593 117.67 48.0453C117.67 47.6313 118.006 47.2953 118.42 47.2953H124.987L125.647 43.2813C125.716 42.9033 125.618 42.5294 125.379 42.2444C125.14 41.9594 124.791 41.7953 124.419 41.7953H111.713L112.917 50.2224C113.005 50.8344 113.536 51.2953 114.154 51.2953H122.42C124.017 51.2953 124.406 50.6993 124.633 49.4483Z" fill="#DEDEDE"/>
<path d="M21.5913 165.034C21.5913 166.477 20.4201 167.648 18.9771 167.648C17.5362 167.648 16.3525 166.477 16.3525 165.034C16.3525 163.591 17.5131 162.42 18.9562 162.42H18.9771C20.4201 162.42 21.5913 163.591 21.5913 165.034ZM35.7079 162.42H35.687C34.244 162.42 33.0833 163.591 33.0833 165.034C33.0833 166.477 34.2649 167.648 35.7079 167.648C37.151 167.648 38.3221 166.477 38.3221 165.034C38.3221 163.591 37.151 162.42 35.7079 162.42ZM45.5058 138.876L43.3854 151.771C42.8353 154.795 41.4675 158.237 35.6661 158.237H18.379C15.5368 158.237 13.0877 156.115 12.6862 153.3L9.52824 131.204C9.3442 129.925 8.23382 128.96 6.94136 128.96H6.38712C5.5213 128.96 4.8186 128.258 4.8186 127.392C4.8186 126.526 5.5213 125.823 6.38712 125.823H6.9434C9.78555 125.823 12.2346 127.946 12.6362 130.761L12.8284 132.097H39.8488C41.5595 132.097 43.17 132.85 44.2659 134.164C45.3596 135.475 45.8132 137.194 45.5058 138.876ZM41.8544 136.171C41.3566 135.575 40.6247 135.232 39.8467 135.232H13.2739L15.7918 152.856C15.9759 154.136 17.0865 155.1 18.379 155.1H35.6661C39.006 155.1 39.8195 153.854 40.2943 151.237L42.415 138.34C42.5593 137.55 42.3521 136.767 41.8544 136.171ZM34.9321 139.409C36.0343 140.751 36.4398 142.696 36.0403 144.744C35.0804 149.698 29.2437 152.407 28.9948 152.52C28.7877 152.614 28.5681 152.66 28.3443 152.66C28.1205 152.66 27.9009 152.614 27.6938 152.52C27.4449 152.407 21.6079 149.698 20.648 144.744C20.2527 142.696 20.6564 140.754 21.7585 139.409C22.6829 138.279 23.9983 137.679 25.5606 137.673C25.569 137.673 25.5775 137.673 25.5859 137.673C26.7507 137.673 27.6605 138.095 28.3423 138.666C29.024 138.098 29.9359 137.673 31.0986 137.673C31.107 137.673 31.1153 137.673 31.1237 137.673C32.6922 137.679 34.0077 138.279 34.9321 139.409ZM32.5081 141.398C32.186 141.004 31.7281 140.812 31.1112 140.81C31.1091 140.81 31.1069 140.81 31.1048 140.81C30.195 140.81 29.8376 141.81 29.8355 141.818C29.6201 142.46 29.0218 142.893 28.3463 142.893C27.6708 142.893 27.0726 142.46 26.8572 141.818C26.8258 141.732 26.4642 140.81 25.5879 140.81C25.5858 140.81 25.5836 140.81 25.5815 140.81C24.9667 140.812 24.5087 141.004 24.1866 141.398C23.6951 142 23.5194 143.052 23.7307 144.144C24.2263 146.71 27.0538 148.584 28.3484 149.32C29.6471 148.588 32.4622 146.726 32.962 144.146C32.962 144.146 32.962 144.146 32.962 144.144C33.1753 143.052 33.0017 141.998 32.5081 141.398Z" fill="#DEDEDE" fill-opacity="0.3"/>
<path d="M210.656 287.421C210.262 287.142 210.168 286.596 210.445 286.201C210.724 285.807 211.267 285.711 211.666 285.99L211.947 286.189L211.504 283.684C211.42 283.208 211.738 282.754 212.214 282.67C212.691 282.586 213.144 282.904 213.226 283.379L213.672 285.905L213.891 285.594C214.17 285.198 214.714 285.104 215.112 285.382C215.506 285.661 215.601 286.207 215.323 286.602L213.891 288.63C213.888 288.635 213.882 288.637 213.879 288.642C213.806 288.74 213.712 288.818 213.603 288.88C213.562 288.903 213.521 288.913 213.477 288.929C213.427 288.949 213.383 288.978 213.328 288.989C213.277 288.998 213.225 289.003 213.175 289.003C213.172 289.003 213.168 289 213.163 289C213.072 288.999 212.983 288.983 212.895 288.952C212.859 288.941 212.829 288.92 212.795 288.903C212.754 288.884 212.711 288.87 212.672 288.843L210.656 287.421ZM205.896 284.855C205.64 283.403 205.817 282.266 206.435 281.382C207.055 280.496 208.064 279.942 209.516 279.686L213.756 278.938C215.209 278.681 216.343 278.858 217.229 279.477C218.115 280.096 218.668 281.104 218.924 282.557L219.672 286.796C219.929 288.249 219.752 289.385 219.132 290.271C218.514 291.155 217.506 291.71 216.052 291.966L211.813 292.714C211.397 292.787 211.003 292.825 210.632 292.825C208.447 292.825 207.077 291.553 206.644 289.095L205.896 284.855ZM207.62 284.552L208.367 288.791C208.707 290.712 209.585 291.329 211.509 290.992L215.749 290.244C216.721 290.072 217.359 289.753 217.698 289.267C218.038 288.782 218.12 288.074 217.949 287.102L217.201 282.862C217.03 281.891 216.71 281.252 216.225 280.913C215.904 280.688 215.484 280.576 214.954 280.576C214.686 280.576 214.387 280.604 214.058 280.662L209.819 281.41C208.847 281.581 208.209 281.901 207.869 282.386C207.53 282.871 207.448 283.58 207.62 284.552ZM220.951 293.526C221.035 294.002 220.718 294.456 220.242 294.54L208.09 296.678C207.885 298.252 206.552 299.476 204.923 299.476C203.153 299.476 201.715 298.037 201.715 296.267C201.715 294.821 202.683 293.609 204.002 293.21L201.624 279.677C201.485 278.888 200.723 278.361 199.929 278.497L199.236 278.615C198.769 278.693 198.307 278.374 198.228 277.898C198.147 277.421 198.467 276.97 198.944 276.889L199.632 276.772C201.361 276.47 203.04 277.636 203.347 279.373L205.774 293.186C206.694 293.442 207.449 294.088 207.839 294.944L219.938 292.814C220.415 292.731 220.868 293.05 220.951 293.526ZM206.382 296.267C206.382 295.464 205.727 294.809 204.923 294.809C204.119 294.809 203.465 295.464 203.465 296.267C203.465 297.071 204.119 297.726 204.923 297.726C205.727 297.726 206.382 297.071 206.382 296.267Z" fill="#EAEAEA"/>
<path opacity="0.5" d="M336.32 71.1896C336.32 72.2853 335.431 73.1746 334.335 73.1746C333.241 73.1746 332.342 72.2853 332.342 71.1896C332.342 70.0938 333.223 69.2046 334.319 69.2046H334.335C335.431 69.2046 336.32 70.0938 336.32 71.1896ZM347.039 69.2046H347.023C345.927 69.2046 345.046 70.0938 345.046 71.1896C345.046 72.2853 345.943 73.1746 347.039 73.1746C348.135 73.1746 349.024 72.2853 349.024 71.1896C349.024 70.0938 348.135 69.2046 347.039 69.2046ZM354.478 51.3269L352.868 61.1185C352.451 63.4147 351.412 66.0286 347.007 66.0286H333.881C331.723 66.0286 329.863 64.4168 329.558 62.2793L327.16 45.5021C327.02 44.5302 326.177 43.7981 325.196 43.7981H324.775C324.118 43.7981 323.584 43.2646 323.584 42.6071C323.584 41.9497 324.118 41.4161 324.775 41.4161H325.197C327.355 41.4161 329.215 43.0279 329.52 45.1654L329.666 46.1801H350.183C351.482 46.1801 352.705 46.7518 353.537 47.7491C354.367 48.7448 354.712 50.0501 354.478 51.3269ZM351.706 49.2736C351.328 48.821 350.772 48.5605 350.181 48.5605H330.004L331.916 61.9426C332.056 62.9145 332.899 63.6466 333.881 63.6466H347.007C349.543 63.6466 350.161 62.7001 350.521 60.7135L352.132 50.9203C352.241 50.32 352.084 49.7261 351.706 49.2736ZM344.625 54.9126H342.64V52.9276C342.64 52.2701 342.106 51.7365 341.449 51.7365C340.792 51.7365 340.258 52.2701 340.258 52.9276V54.9126H338.273C337.616 54.9126 337.082 55.4461 337.082 56.1036C337.082 56.761 337.616 57.2946 338.273 57.2946H340.258V59.2796C340.258 59.937 340.792 60.4706 341.449 60.4706C342.106 60.4706 342.64 59.937 342.64 59.2796V57.2946H344.625C345.282 57.2946 345.816 56.761 345.816 56.1036C345.816 55.4461 345.282 54.9126 344.625 54.9126Z" fill="#DEDEDE"/>
<path opacity="0.5" d="M240.765 249.352C240.765 250.545 239.797 251.513 238.603 251.513C237.412 251.513 236.433 250.545 236.433 249.352C236.433 248.158 237.393 247.19 238.586 247.19H238.603C239.797 247.19 240.765 248.158 240.765 249.352ZM252.439 247.19H252.422C251.228 247.19 250.268 248.158 250.268 249.352C250.268 250.545 251.246 251.513 252.439 251.513C253.632 251.513 254.601 250.545 254.601 249.352C254.601 248.158 253.632 247.19 252.439 247.19ZM260.541 227.72L258.788 238.384C258.333 240.884 257.202 243.731 252.404 243.731H238.109C235.758 243.731 233.733 241.976 233.401 239.648L230.79 221.376C230.637 220.318 229.719 219.521 228.65 219.521H228.192C227.476 219.521 226.895 218.939 226.895 218.223C226.895 217.507 227.476 216.926 228.192 216.926H228.652C231.002 216.926 233.028 218.682 233.36 221.01L233.519 222.115H255.863C257.278 222.115 258.61 222.737 259.516 223.823C260.42 224.908 260.795 226.329 260.541 227.72ZM257.522 225.484C257.11 224.991 256.505 224.707 255.861 224.707H233.887L235.969 239.281C236.121 240.34 237.04 241.137 238.109 241.137H252.404C255.166 241.137 255.839 240.106 256.231 237.943L257.985 227.277C258.105 226.623 257.933 225.977 257.522 225.484ZM247.987 229.698L244.291 233.392L242.903 232.004C242.396 231.497 241.574 231.497 241.068 232.004C240.561 232.51 240.561 233.332 241.068 233.839L243.373 236.144C243.617 236.388 243.946 236.524 244.29 236.524C244.634 236.524 244.964 236.388 245.206 236.144L249.819 231.531C250.325 231.026 250.325 230.203 249.819 229.697C249.312 229.19 248.494 229.192 247.987 229.698Z" fill="#DEDEDE"/>
<path d="M336.208 276.767L334.398 271.415C333.546 268.899 332.492 266.975 327.418 266.975H311.738C306.664 266.975 305.61 268.899 304.76 271.415L302.946 276.769C302.143 279.145 302.74 281.675 304.333 283.341V294.415C304.333 298.628 306.654 300.949 310.866 300.949H328.29C332.502 300.949 334.823 298.628 334.823 294.415V283.339C336.416 281.674 337.012 279.144 336.208 276.767ZM305.422 277.605L307.235 272.251C307.835 270.477 308.136 269.587 311.738 269.587H327.418C331.02 269.587 331.321 270.477 331.922 272.251L333.733 277.603C334.332 279.37 333.698 281.269 332.229 282.118C330.091 283.351 326.856 282.121 326.115 280.039C325.93 279.518 325.436 279.17 324.883 279.17C324.882 279.17 324.88 279.17 324.878 279.17C324.324 279.172 323.829 279.523 323.648 280.048C323.132 281.534 321.383 282.654 319.578 282.654C317.773 282.654 316.024 281.534 315.508 280.048C315.327 279.523 314.832 279.172 314.278 279.17C313.781 279.229 313.226 279.516 313.041 280.039C312.511 281.529 310.753 282.654 308.948 282.654C308.232 282.654 307.533 282.47 306.927 282.118C305.458 281.271 304.824 279.372 305.422 277.605ZM321.808 298.335H317.452V293.544C317.452 292.343 318.43 291.366 319.63 291.366C320.831 291.366 321.808 292.343 321.808 293.544V298.335ZM328.29 298.335H324.422V293.544C324.422 290.901 322.273 288.753 319.63 288.753C316.987 288.753 314.839 290.901 314.839 293.544V298.335H310.866C308.119 298.335 306.946 297.163 306.946 294.415V284.926C309.507 285.679 312.532 284.834 314.266 282.938C315.559 284.358 317.529 285.266 319.578 285.266C321.627 285.266 323.597 284.358 324.89 282.938C326.19 284.358 328.162 285.266 330.208 285.266C330.893 285.266 331.565 285.149 332.21 284.947V294.415C332.21 297.163 331.037 298.335 328.29 298.335Z" fill="#DEDEDE" fill-opacity="0.3"/>
</svg>
