<svg width="40" height="41" viewBox="0 0 40 41" fill="none" xmlns="http://www.w3.org/2000/svg">
<g clip-path="url(#clip0_42_22)">
<path d="M3.58333 7.87038C3.3311 7.87069 3.07888 7.87236 2.82667 7.87538C2.57667 7.88372 2.32167 7.89705 2.07333 7.94205C1.69803 8.00136 1.34218 8.14893 1.03504 8.37261C0.727905 8.5963 0.478268 8.88972 0.306667 9.22872C0.19 9.45872 0.116667 9.69205 0.0733333 9.94538C0.0266667 10.192 0.0116667 10.4454 0.00666667 10.6954C0.00325468 10.8115 0.00103235 10.9276 0 11.0437L0 30.3054C0 30.422 0.00333333 30.5354 0.005 30.6504C0.0116667 30.9004 0.0266667 31.1554 0.0716667 31.4037C0.116667 31.6537 0.191667 31.8887 0.308333 32.1187C0.538158 32.5712 0.905862 32.9389 1.35833 33.1687C1.58833 33.2854 1.82167 33.3604 2.075 33.4054C2.32167 33.4504 2.575 33.4654 2.825 33.4721L3.17167 33.477H36.8283L37.1733 33.4721C37.4233 33.4654 37.6783 33.4504 37.9267 33.4054C38.1767 33.3604 38.4117 33.287 38.64 33.1704C39.0936 32.9408 39.4621 32.5723 39.6917 32.1187C39.8083 31.8887 39.8833 31.6554 39.9267 31.402C39.9717 31.1554 39.9867 30.902 39.9933 30.652C39.9967 30.5354 39.9983 30.422 39.9983 30.3054L40 29.8954V11.042C40 10.9254 39.9967 10.812 39.9933 10.697C39.9902 10.4446 39.9679 10.1928 39.9267 9.94372C39.8469 9.44181 39.6106 8.97796 39.2514 8.61846C38.8922 8.25896 38.4285 8.02221 37.9267 7.94205C37.6776 7.90098 37.4258 7.87869 37.1733 7.87538C36.9217 7.86826 36.67 7.86659 36.4183 7.87038H3.58333ZM3.58333 8.72372H36.82C36.93 8.72372 37.0383 8.72705 37.1483 8.72872C37.34 8.73538 37.565 8.74538 37.7733 8.78205C37.955 8.81538 38.1067 8.86538 38.2517 8.93872C38.544 9.08712 38.7816 9.32469 38.93 9.61705C39.0064 9.76813 39.0592 9.93 39.0867 10.097C39.1233 10.302 39.1333 10.527 39.1383 10.7204C39.1417 10.8287 39.1433 10.937 39.1433 11.0487V30.302C39.1433 30.4104 39.1433 30.5187 39.1383 30.6287C39.1333 30.8204 39.1233 31.0454 39.085 31.2537C39.0489 31.499 38.9544 31.7319 38.8094 31.933C38.6643 32.134 38.473 32.2972 38.2517 32.4087C38.1016 32.4846 37.9409 32.5375 37.775 32.5654C37.5693 32.5981 37.3616 32.6159 37.1533 32.6187L36.82 32.6237H3.17667C3.06667 32.6237 2.955 32.6204 2.85 32.6187C2.64065 32.616 2.43178 32.5982 2.225 32.5654C2.04333 32.532 1.89167 32.482 1.745 32.4087C1.45264 32.2609 1.21545 32.0231 1.06833 31.7304C0.992181 31.5792 0.93936 31.4174 0.911667 31.2504C0.878567 31.0448 0.86074 30.837 0.858333 30.6287C0.856098 30.5193 0.854987 30.4098 0.855 30.3004V11.047C0.855 10.9387 0.855 10.8287 0.858333 10.7187C0.865 10.5287 0.875 10.3054 0.911667 10.0937C0.945 9.91372 0.995 9.76205 1.06833 9.61538C1.21684 9.32351 1.45443 9.0865 1.74667 8.93872C1.89755 8.86328 2.05872 8.81049 2.225 8.78205C2.43333 8.74538 2.65833 8.73372 2.85 8.72872C2.95833 8.72538 3.06833 8.72538 3.17667 8.72372H3.58333ZM11.4333 14.8904C10.9333 14.917 10.32 15.222 9.96667 15.6504C9.64833 16.017 9.36667 16.617 9.44 17.1804C10.0033 17.2304 10.565 16.8987 10.92 16.4837C11.2617 16.0537 11.495 15.4787 11.4333 14.892V14.8904ZM15.1117 15.5904V24.7454H16.5317V21.617H18.4983C20.295 21.617 21.5567 20.3854 21.5567 18.597C21.5567 16.8137 20.32 15.5887 18.5433 15.5887L15.1117 15.5904ZM16.5317 16.7887H18.1683C19.4 16.7887 20.1033 17.4487 20.1033 18.6037C20.1033 19.757 19.4 20.4237 18.1633 20.4237H16.5317V16.7887ZM11.275 17.2887C10.525 17.3054 9.89167 17.7554 9.525 17.7554C9.13333 17.7554 8.53667 17.3154 7.89 17.327C7.46935 17.3375 7.05878 17.458 6.69912 17.6764C6.33947 17.8948 6.04328 18.2036 5.84 18.572C4.96167 20.0854 5.60833 22.3304 6.46333 23.5637C6.87833 24.1737 7.37833 24.8454 8.03667 24.8204C8.65833 24.797 8.90333 24.417 9.65833 24.417C10.415 24.417 10.635 24.8204 11.2917 24.8087C11.975 24.797 12.4033 24.1987 12.8167 23.587C13.2933 22.892 13.4883 22.2204 13.5 22.1854C13.4883 22.172 12.1833 21.672 12.1717 20.1704C12.1583 18.9137 13.1967 18.3154 13.245 18.2787C12.6583 17.412 11.745 17.3154 11.4283 17.2904C11.3773 17.2872 11.3261 17.2877 11.275 17.2887ZM24.9483 17.9504C23.2983 17.9504 22.2717 18.8387 22.195 20.0437H23.49C23.61 19.447 24.105 19.067 24.8983 19.067C25.735 19.067 26.2367 19.5104 26.2367 20.252V20.767L24.4083 20.8737C22.8233 20.9637 21.9283 21.6804 21.9283 22.847C21.9283 24.047 22.8417 24.8587 24.1483 24.8587C25.025 24.8587 25.8683 24.3904 26.255 23.647H26.2867V24.7454H27.6V20.1454C27.6 18.807 26.5667 17.9504 24.9483 17.9504ZM28.1817 18.0704L30.5917 24.752C30.5917 24.757 30.47 25.152 30.47 25.1637C30.2617 25.847 29.92 26.1154 29.285 26.1154C29.17 26.1154 28.9417 26.1154 28.84 26.0904V27.2004C28.94 27.2187 29.285 27.232 29.3983 27.232C30.7817 27.232 31.4417 26.712 32.0117 25.0937L34.5117 18.0704H33.065L31.3783 23.502H31.3533L29.665 18.0687L28.1817 18.0704ZM26.2367 21.7187V22.2454C26.2367 23.1137 25.4867 23.7737 24.53 23.7737C23.7933 23.7737 23.3117 23.3937 23.3117 22.8087C23.3117 22.2387 23.775 21.8754 24.5933 21.8204L26.2367 21.7187Z" fill="#150F0F"/>
</g>
<defs>
<clipPath id="clip0_42_22">
<rect width="40" height="40" fill="white" transform="translate(0 0.673828)"/>
</clipPath>
</defs>
</svg>
