<svg width="40" height="40" viewBox="0 0 40 40" fill="none" xmlns="http://www.w3.org/2000/svg">
<g clip-path="url(#clip0_42_2)">
<path d="M40 29.9999C40 31.1787 39.5317 32.3091 38.6983 33.1426C37.8648 33.9761 36.7343 34.4444 35.5556 34.4444H4.44444C3.2657 34.4444 2.13524 33.9761 1.30175 33.1426C0.468253 32.3091 0 31.1787 0 29.9999V26.6666C0 25.4879 0.468253 24.3574 1.30175 23.5239C2.13524 22.6904 3.2657 22.2222 4.44444 22.2222H35.5556C36.7343 22.2222 37.8648 22.6904 38.6983 23.5239C39.5317 24.3574 40 25.4879 40 26.6666V29.9999Z" fill="#DD2E44"/>
<path d="M21.1111 14.4444L20.0233 13.3333H7.94C4.44444 13.3333 3.33333 15.5555 3.33333 15.5555L0 22.1766V27.7777H21.1111V14.4444Z" fill="#FFCC4D"/>
<path d="M9.99995 22.2223H2.22217L4.44439 17.7779C4.44439 17.7779 5.5555 15.5557 7.77772 15.5557H9.99995V22.2223Z" fill="#55ACEE"/>
<path d="M9.99999 38.8889C12.4546 38.8889 14.4444 36.899 14.4444 34.4444C14.4444 31.9898 12.4546 30 9.99999 30C7.54539 30 5.55554 31.9898 5.55554 34.4444C5.55554 36.899 7.54539 38.8889 9.99999 38.8889Z" fill="#292F33"/>
<path d="M10.0001 36.6666C11.2274 36.6666 12.2223 35.6717 12.2223 34.4444C12.2223 33.2171 11.2274 32.2222 10.0001 32.2222C8.77275 32.2222 7.77783 33.2171 7.77783 34.4444C7.77783 35.6717 8.77275 36.6666 10.0001 36.6666Z" fill="#CCD6DD"/>
<path d="M30 38.8889C32.4546 38.8889 34.4444 36.899 34.4444 34.4444C34.4444 31.9898 32.4546 30 30 30C27.5454 30 25.5555 31.9898 25.5555 34.4444C25.5555 36.899 27.5454 38.8889 30 38.8889Z" fill="#292F33"/>
<path d="M30.0001 36.6666C31.2274 36.6666 32.2223 35.6717 32.2223 34.4444C32.2223 33.2171 31.2274 32.2222 30.0001 32.2222C28.7728 32.2222 27.7778 33.2171 27.7778 34.4444C27.7778 35.6717 28.7728 36.6666 30.0001 36.6666Z" fill="#CCD6DD"/>
<path d="M35.5556 8.88892H18.8889C17.7102 8.88892 16.5797 9.35717 15.7462 10.1907C14.9127 11.0242 14.4445 12.1546 14.4445 13.3334V27.7778H40V13.3334C40 12.1546 39.5318 11.0242 38.6983 10.1907C37.8648 9.35717 36.7343 8.88892 35.5556 8.88892Z" fill="#CCD6DD"/>
</g>
<defs>
<clipPath id="clip0_42_2">
<rect width="40" height="40" fill="white"/>
</clipPath>
</defs>
</svg>
