<svg width="52" height="32" viewBox="0 0 52 32" fill="none" xmlns="http://www.w3.org/2000/svg">
<g clip-path="url(#clip0_42_17)">
<path d="M18.7548 3.39771H32.6543V28.3728H18.7548V3.39771Z" fill="#FF5F00"/>
<path d="M19.6373 15.8852C19.6373 10.8109 22.02 6.30995 25.6823 3.39759C22.9909 1.2796 19.5933 0 15.8868 0C7.10546 0 0.00134277 7.10412 0.00134277 15.8852C0.00134277 24.6661 7.10546 31.7705 15.8866 31.7705C19.5931 31.7705 22.9907 30.4909 25.6823 28.3727C22.02 25.5045 19.6373 20.9596 19.6373 15.8852Z" fill="#EB001B"/>
<path d="M51.4076 15.8852C51.4076 24.6661 44.3034 31.7705 35.5223 31.7705C31.8158 31.7705 28.4182 30.4909 25.7266 28.3727C29.4331 25.4605 31.7718 20.9596 31.7718 15.8852C31.7718 10.8109 29.3889 6.30995 25.7266 3.39759C28.418 1.2796 31.8158 0 35.5223 0C44.3034 0 51.4076 7.14834 51.4076 15.8852Z" fill="#F79E1B"/>
</g>
<defs>
<clipPath id="clip0_42_17">
<rect width="52" height="32" fill="white"/>
</clipPath>
</defs>
</svg>
