<svg width="24" height="24" viewBox="0 0 24 24" fill="none" xmlns="http://www.w3.org/2000/svg">
<g clip-path="url(#clip0_3234_27132)">
<path d="M7.57901 11.2565L7.84415 11.3033C7.81438 11.3827 7.78203 11.4611 7.74707 11.5384C7.52647 12.0264 7.22307 12.4352 6.82174 12.7562C6.31755 13.1593 5.72681 13.3656 5.0849 13.3572C4.62768 13.3513 4.18931 13.2309 3.77217 13.0097C3.28105 12.7482 2.86984 12.3779 2.52758 11.9103C2.22192 11.494 1.99495 11.029 1.8431 10.5205C1.69664 10.0297 1.62777 9.53121 1.64061 9.02645C1.64193 8.97927 1.64335 8.94449 1.64689 8.86519C1.64781 8.84468 1.64843 8.83063 1.64894 8.81864C1.64898 8.80045 1.64949 8.78262 1.6504 8.76492L1.63411 8.72346L1.76866 7.96038L1.80496 7.92312C1.85903 7.72491 1.93258 7.53009 2.02436 7.33491C2.2444 6.86565 2.54273 6.47127 2.93276 6.16047C3.40898 5.78161 3.96321 5.57714 4.56832 5.56371C5.045 5.55359 5.50371 5.66743 5.93917 5.89089C6.38465 6.1199 6.76897 6.44185 7.09341 6.84379C7.51988 7.37031 7.81035 7.97639 7.97471 8.65483L7.90066 9.07475C7.51215 8.72589 7.20531 8.30115 6.96802 7.80511C6.70185 7.24775 6.54676 6.64849 6.49485 6.0104C6.46739 5.67406 6.471 5.33627 6.50485 5.00225C6.52092 4.83566 6.53345 4.73332 6.55506 4.63285C6.67045 4.00275 6.86612 3.45646 7.16674 2.95664C7.42295 2.52987 7.73408 2.1715 8.11211 1.88632C8.57418 1.53685 9.08989 1.33046 9.65215 1.28891C10.2252 1.24592 10.773 1.37753 11.2782 1.66853C11.6805 1.90062 12.0231 2.21356 12.3124 2.59827C12.7197 3.13878 12.989 3.75855 13.1369 4.45397C13.2251 4.8696 13.2632 5.29221 13.2517 5.72057C13.2453 5.96109 13.2237 6.20015 13.1865 6.44011C13.137 6.75244 13.0629 7.05131 12.9618 7.33707C12.8963 7.52312 12.822 7.70119 12.7384 7.87123L12.454 7.82108C12.4364 7.59696 12.4353 7.3698 12.4501 7.13957C12.4655 6.89139 12.4978 6.64858 12.5474 6.41193C12.6629 5.85809 12.8587 5.33126 13.1326 4.83571C13.4333 4.29049 13.8062 3.81776 14.2577 3.42173C14.6766 3.05442 15.1322 2.77987 15.6339 2.60687C16.0449 2.46493 16.4659 2.4043 16.8926 2.43059L16.9007 2.43113C17.128 2.44728 17.2528 2.46952 17.4749 2.5313L17.4844 2.53396L17.4939 2.53684C18.3157 2.78604 18.9254 3.33488 19.3096 4.12317C19.5402 4.59659 19.6621 5.10892 19.6942 5.66945C19.7184 6.10444 19.6826 6.54119 19.5903 6.98038C19.4274 7.75521 19.113 8.46801 18.6506 9.11233C18.3151 9.58013 17.9202 9.97467 17.4611 10.2908C17.2173 10.4582 16.9663 10.5961 16.7063 10.7026L16.7874 10.2424C16.9278 10.0421 17.085 9.84985 17.2585 9.6657C17.4686 9.44204 17.7003 9.24127 17.9534 9.06356C18.4994 8.68166 19.0805 8.43943 19.7112 8.35272C20.1172 8.29785 20.5137 8.31605 20.8983 8.4153C21.5217 8.57578 22.0412 8.92276 22.4243 9.43877C22.7502 9.87766 22.9338 10.3848 22.9953 10.9502C23.0272 11.2436 23.0232 11.5358 22.982 11.8245L22.98 11.8384L22.9644 11.9266L22.9617 11.9396C22.9505 11.9937 22.9404 12.051 22.9312 12.1131L22.9295 12.125L22.9133 12.2168L22.909 12.236C22.7747 12.8358 22.5156 13.3924 22.1409 13.915C21.8534 14.3145 21.5156 14.661 21.1286 14.9494C20.5945 15.3482 20.0173 15.61 19.3895 15.7187C18.9647 15.7923 18.5463 15.7854 18.1366 15.6895C17.4946 15.5386 16.9584 15.1922 16.5622 14.667C16.2511 14.2542 16.0662 13.7774 15.9935 13.2494C15.9697 13.0783 15.9583 12.9064 15.9589 12.7341L16.2632 12.7878C16.2639 12.7893 16.2645 12.7909 16.2652 12.7924C16.4678 13.2748 16.6321 13.6292 16.8113 13.9578C17.0058 14.3148 17.2302 14.652 17.4846 14.9693C17.8817 15.4648 18.2091 15.99 18.4656 16.5515C18.7005 17.0692 18.8612 17.5911 18.9432 18.1253C19.0128 18.5785 19.0228 19.0224 18.9685 19.4604C18.8798 20.1801 18.6298 20.8296 18.2088 21.3944C17.8151 21.9231 17.3053 22.3285 16.6936 22.6128C16.238 22.8245 15.7742 22.9513 15.2977 22.9842C15.1381 22.9957 14.9794 22.9969 14.8234 22.9876L14.7761 23.0084L13.9001 22.8539L13.8844 22.8376C13.6284 22.773 13.3882 22.6828 13.0368 22.5331C12.8002 22.4318 12.6166 22.3462 12.2167 22.1544L12.2139 22.153C11.9354 22.0194 11.8125 21.9613 11.6614 21.893C11.2922 21.7265 10.9592 21.5987 10.6361 21.5028C10.4331 21.4424 10.209 21.3967 9.93944 21.3587C9.7945 21.3382 9.63149 21.3312 9.40172 21.3335C9.07386 21.3375 8.79956 21.3573 8.18696 21.4142L8.17813 21.415C8.16522 21.4162 8.16522 21.4162 8.15369 21.4173C7.43995 21.4847 7.09821 21.5076 6.66577 21.5024C6.3824 21.4983 6.18502 21.4852 5.96837 21.4458C5.96698 21.4457 5.96531 21.4455 5.96331 21.4453C5.90772 21.4392 5.87695 21.4352 5.82669 21.4251L5.82013 21.4238C5.81939 21.4237 5.81857 21.4235 5.81767 21.4234C5.77567 21.4173 5.75313 21.4136 5.71594 21.4057C5.67804 21.3976 5.64048 21.3877 5.6026 21.3755C5.59534 21.3737 5.587 21.3717 5.57699 21.3692C5.54846 21.3622 5.53601 21.3592 5.51982 21.3552C5.46504 21.3417 5.42089 21.3304 5.37411 21.3176C4.75959 21.1486 4.22459 20.8378 3.78868 20.3867C3.06364 19.6362 2.67213 18.7225 2.6387 17.6837C2.62683 17.3009 2.669 16.9186 2.76124 16.5366C2.86238 16.1137 3.02045 15.7076 3.23331 15.315C3.54941 14.7324 3.96351 14.2113 4.47177 13.7429C4.83302 13.4099 5.23021 13.1154 5.66172 12.8582C5.95345 12.684 6.24308 12.4744 6.54385 12.2228C6.85074 11.9656 7.13406 11.6987 7.57901 11.2565ZM14.5336 22.9589L14.5329 22.9587C14.5336 22.9589 14.5343 22.9591 14.5352 22.9593C14.5346 22.9592 14.5341 22.959 14.5336 22.9589ZM14.4912 22.951C14.4917 22.9511 14.4923 22.9512 14.4929 22.9514C14.4921 22.9512 14.4914 22.951 14.4912 22.951ZM14.2151 22.9016L14.2146 22.9016C14.2136 22.9015 14.2125 22.9014 14.2114 22.9013C14.2132 22.9015 14.2145 22.9016 14.2151 22.9016ZM5.95293 21.443C5.95346 21.4431 5.954 21.4432 5.95456 21.4433C5.95402 21.4432 5.95348 21.4431 5.95293 21.443ZM1.75916 8.08635C1.75853 8.08883 1.75792 8.0913 1.75732 8.0938C1.75791 8.09136 1.75852 8.08888 1.75916 8.08635Z" fill="white"/>
<path d="M5.85001 20.5505C5.76746 20.5299 5.68447 20.5106 5.60224 20.4882C5.14172 20.3615 4.73933 20.1327 4.40688 19.7887C3.83333 19.195 3.52469 18.4857 3.49802 17.6569C3.48836 17.3454 3.52432 17.0392 3.59737 16.7367C3.68231 16.3815 3.81508 16.0459 3.98886 15.7254C4.26634 15.2139 4.62727 14.7691 5.05416 14.3756C5.37589 14.0791 5.72645 13.821 6.10208 13.597C6.45363 13.3871 6.78193 13.1448 7.09575 12.8824C7.49074 12.5514 7.85875 12.1916 8.22357 11.8283C8.54608 11.5072 8.86462 11.1829 9.20085 10.8768C9.45382 10.6457 9.71632 10.4266 9.99978 10.234C10.3544 9.99346 10.7323 9.80348 11.1545 9.71151C11.4712 9.64239 11.7894 9.63232 12.1099 9.68193C12.4724 9.73727 12.8227 9.83594 13.1587 9.98397C13.6727 10.211 14.092 10.5551 14.4256 11.0072C14.6536 11.3176 14.8334 11.655 14.9944 12.0033C15.1652 12.3727 15.3153 12.7508 15.4728 13.1261C15.6503 13.5488 15.8368 13.9668 16.0565 14.3698C16.2753 14.7714 16.528 15.1509 16.814 15.5077C17.16 15.9394 17.4527 16.4035 17.6829 16.9074C17.8788 17.3392 18.0216 17.787 18.0936 18.2563C18.1498 18.6218 18.161 18.9875 18.1154 19.3554C18.0465 19.9141 17.8579 20.4267 17.5196 20.8805C17.2064 21.3012 16.8053 21.6126 16.3319 21.8326C15.9838 21.9943 15.6206 22.0997 15.2363 22.1262C15.1002 22.136 14.9637 22.1363 14.8276 22.1256C14.8087 22.1242 14.7901 22.1245 14.7716 22.1241C14.7524 22.1309 14.7344 22.1201 14.7155 22.1192C14.7 22.1186 14.6851 22.1088 14.6689 22.1159C14.5547 22.0958 14.44 22.0756 14.3258 22.0554C14.314 22.0431 14.2973 22.0473 14.2832 22.0429C14.2698 22.0406 14.2571 22.0383 14.244 22.036C14.2332 22.0341 14.2214 22.032 14.2109 22.0302C13.9199 21.9691 13.6466 21.8578 13.375 21.7421C12.915 21.5453 12.4706 21.3148 12.0149 21.1088C11.6456 20.9422 11.2699 20.7936 10.8813 20.6782C10.612 20.5981 10.337 20.546 10.0604 20.507C9.83924 20.4757 9.615 20.4711 9.39169 20.4734C8.95063 20.4787 8.51198 20.5202 8.07323 20.5609C7.609 20.6047 7.14489 20.6478 6.67846 20.6423C6.48879 20.6395 6.29963 20.6326 6.11254 20.5977C6.07418 20.5905 6.03494 20.5895 5.99619 20.5817C5.94718 20.5702 5.89683 20.5704 5.85001 20.5505ZM17.2445 3.36022C17.8484 3.54336 18.2642 3.94091 18.5369 4.50033C18.7237 4.88393 18.8116 5.2927 18.836 5.7174C18.8563 6.08306 18.8245 6.44502 18.7492 6.80358C18.6107 7.46238 18.3445 8.06439 17.9524 8.61086C17.6807 8.98956 17.3585 9.31744 16.9748 9.58163C16.6331 9.81634 16.2633 9.98681 15.8537 10.0615C15.5661 10.1138 15.2797 10.1143 14.9949 10.0464C14.5018 9.92973 14.1138 9.6566 13.8195 9.24714C13.5687 8.89773 13.4253 8.50346 13.3522 8.08206C13.3011 7.78739 13.2891 7.49079 13.3081 7.193C13.3209 6.98885 13.3472 6.78687 13.389 6.5876C13.4871 6.11713 13.6531 5.67147 13.8853 5.2513C14.132 4.80393 14.4401 4.40571 14.8242 4.06875C15.1475 3.78532 15.5063 3.56079 15.9143 3.42014C16.2141 3.3166 16.5222 3.26975 16.8397 3.28931C17.0138 3.30169 17.0825 3.31515 17.2445 3.36022ZM2.61149 8.24051C2.65446 8.05336 2.72099 7.87393 2.80265 7.70027C2.96092 7.36276 3.17466 7.06741 3.46771 6.83389C3.79519 6.57335 4.16792 6.43315 4.58642 6.42386C4.92621 6.41665 5.24522 6.5017 5.54629 6.6562C5.89237 6.83411 6.18208 7.08397 6.42562 7.38568C6.80421 7.85308 7.04038 8.38774 7.16584 8.97406C7.23136 9.28104 7.2594 9.59188 7.24989 9.90563C7.24536 10.0579 7.22938 10.2091 7.20591 10.3597C7.16097 10.6455 7.083 10.9208 6.96394 11.184C6.80515 11.5353 6.58795 11.8421 6.28533 12.0842C5.93796 12.362 5.54112 12.5029 5.09632 12.4971C4.76995 12.4929 4.46413 12.403 4.17627 12.2503C3.78933 12.0443 3.47801 11.7528 3.22051 11.401C2.96918 11.0586 2.78824 10.6806 2.66689 10.2742C2.54796 9.87571 2.4894 9.46735 2.5 9.05048C2.50207 8.97681 2.50598 8.90347 2.50893 8.83019C2.50712 8.79606 2.51601 8.76311 2.51393 8.72918C2.51264 8.71491 2.517 8.70235 2.51879 8.68814C2.51931 8.67038 2.53039 8.65329 2.52286 8.6341C2.53833 8.54637 2.55376 8.45887 2.56927 8.3709C2.58985 8.34977 2.58651 8.32157 2.59287 8.29627C2.59763 8.27735 2.59638 8.25618 2.61149 8.24051ZM7.39802 4.80258C7.49222 4.28046 7.64944 3.82231 7.90368 3.3996C8.0956 3.07993 8.33139 2.79822 8.63039 2.57266C8.95252 2.32903 9.31099 2.1768 9.71628 2.14685C10.1216 2.11644 10.4979 2.21183 10.8488 2.41391C11.1578 2.59218 11.4124 2.83229 11.626 3.11635C11.9673 3.56931 12.1786 4.08078 12.2961 4.63307C12.3706 4.98426 12.402 5.33926 12.3925 5.69776C12.387 5.90105 12.3688 6.10376 12.3375 6.30558C12.2973 6.5594 12.2369 6.80872 12.1512 7.05118C11.9726 7.55793 11.7103 8.01302 11.3195 8.38738C11.0766 8.6195 10.7999 8.79805 10.4799 8.90542C10.1224 9.02521 9.76011 9.03773 9.39563 8.94395C9.06608 8.85942 8.77733 8.69566 8.52013 8.47415C8.18456 8.18549 7.93403 7.83185 7.74376 7.43407C7.51819 6.96175 7.39415 6.46162 7.35173 5.94018C7.32844 5.65493 7.33175 5.3696 7.36061 5.08474C7.37093 4.97777 7.38252 4.87031 7.39802 4.80258ZM22.0809 11.9875C22.0774 12.0076 22.0738 12.0279 22.0702 12.0482C21.9583 12.548 21.7403 12.9985 21.4434 13.4125C21.2101 13.7368 20.9351 14.0213 20.6148 14.26C20.2036 14.567 19.7513 14.7831 19.2432 14.8711C18.9388 14.9239 18.6352 14.9227 18.3335 14.8521C17.8884 14.7475 17.5246 14.5148 17.2487 14.149C17.0209 13.8468 16.8963 13.5025 16.845 13.1306C16.7986 12.7973 16.8147 12.4649 16.8835 12.1357C17.0342 11.4116 17.3804 10.7904 17.8848 10.2549C18.0552 10.0736 18.2426 9.91143 18.4458 9.76872C18.8636 9.4765 19.3178 9.27521 19.8261 9.20533C20.115 9.16628 20.4015 9.17563 20.684 9.24852C21.1154 9.35959 21.4677 9.59286 21.7343 9.95197C21.9749 10.276 22.0975 10.6454 22.1408 11.0435C22.1647 11.2634 22.1624 11.4836 22.1311 11.7031C22.1275 11.7234 22.1239 11.7439 22.1203 11.7643C22.1049 11.8382 22.092 11.9126 22.0809 11.9875Z" fill="black"/>
</g>
<defs>
<clipPath id="clip0_3234_27132">
<rect width="24" height="24" fill="white"/>
</clipPath>
</defs>
</svg>
