<svg width="24" height="24" viewBox="0 0 24 24" fill="none" xmlns="http://www.w3.org/2000/svg">
    <path d="M12.1528 0H11.8472L11.5569 0.123373L7.11062 4.58024C6.91962 4.8347 6.98456 5.02747 7.30161 5.02747H9.26882C9.58969 5.02747 9.84179 5.28193 9.84179 5.60193V8.90988C9.84179 9.22988 10.0977 9.48434 10.4148 9.48434H13.6502C14.0322 9.48434 14.2881 9.22988 14.2881 8.90988V5.60193C14.2881 5.28193 14.5402 5.02747 14.8572 5.02747H16.6984C17.0154 5.02747 17.0804 4.8347 16.8894 4.58024L12.4469 0.123373L12.1528 0Z" fill="#ED1C24"/>
    <path d="M19.4945 7.2559C19.399 7.12867 19.3035 7.08241 19.2309 7.10554C19.1584 7.12867 19.1125 7.22506 19.1125 7.38313V16.4858C19.1125 16.6477 19.1584 16.7595 19.2309 16.7981C19.3035 16.8366 19.399 16.8058 19.4945 16.6786L23.8109 12.3489C24.063 12.16 24.063 11.7745 23.8109 11.52L19.4945 7.2559Z" fill="#ED1C24"/>
    <path d="M4.88747 7.00916C4.96769 7.04771 5.01735 7.15952 5.01735 7.32145V16.613C5.01735 16.7749 4.96769 16.8713 4.88747 16.9022C4.81108 16.933 4.7003 16.9022 4.57043 16.8058L0.189082 12.3489C-0.0630272 12.16 -0.0630272 11.7745 0.189082 11.52L4.57043 7.12867C4.7003 7.00145 4.81108 6.9706 4.88747 7.00916Z" fill="#ED1C24"/>
    <path d="M13.6502 14.3229H10.4148C10.0977 14.3229 9.84179 14.5773 9.84179 14.8973V18.3981C9.84179 18.7798 9.58969 19.0342 9.26882 19.0342H7.42766C7.11062 19.0342 6.98456 19.2231 7.24049 19.4159L11.5569 23.8072C11.683 23.9345 11.8434 24 12 24C12.1604 24 12.317 23.9345 12.4469 23.8072L16.7633 19.4159C17.0154 19.2231 16.8894 19.0342 16.5723 19.0342H14.8572C14.5402 19.0342 14.2881 18.7798 14.2881 18.3981V14.8973C14.2881 14.5773 14.0322 14.3229 13.6502 14.3229Z" fill="#ED1C24"/>
</svg>