<svg width="365" height="341" viewBox="0 0 365 341" fill="none" xmlns="http://www.w3.org/2000/svg">
<g clip-path="url(#clip0_603_9)">
<path d="M71.2781 266.742C89.7305 293.607 115.906 314.235 146.341 325.896C176.776 337.556 210.034 339.699 241.713 332.041C273.393 324.383 302 307.285 323.747 283.01C345.495 258.734 359.358 228.427 363.501 196.1C367.644 163.772 361.872 130.949 346.948 101.974C332.025 72.9993 308.655 49.2397 279.93 33.8402C251.206 18.4407 218.482 12.1275 186.091 15.7363C153.699 19.3451 123.167 32.7057 98.5364 54.0495L203.906 175.646L71.2781 266.742Z" fill="#FDDC02"/>
<path d="M63.3658 49.8436C34.1354 75.7893 15.3484 111.488 10.5133 150.272C5.67813 189.056 15.1255 228.274 37.0911 260.603L170.177 170.177L63.3658 49.8436Z" fill="#12B010"/>
</g>
<defs>
<clipPath id="clip0_603_9">
<rect width="364.806" height="340.354" fill="white"/>
</clipPath>
</defs>
</svg>
