<svg width="42" height="40" viewBox="0 0 42 40" fill="none" xmlns="http://www.w3.org/2000/svg">
<g clip-path="url(#clip0_1714_1715)">
<path d="M41.0255 20.0882C40.9803 31.1355 31.7406 40.0439 20.4225 39.9998C9.10435 39.9557 -0.0450154 30.9591 0.000166623 19.9118C0.0453487 8.86448 9.28508 -0.043938 20.6032 0.000163037C31.9439 0.0442641 41.0707 9.04088 41.0255 20.0882Z" fill="#221F1F"/>
<path d="M27.9007 29.9007C25.7319 33.6934 23.0436 36.8025 20.039 36.7364C18.1639 36.6922 16.3792 36.0087 14.7527 34.9282C15.2723 34.0021 18.548 29.3715 27.9007 29.9007ZM40.4839 20.0882C40.4387 30.8268 31.4475 39.5147 20.423 39.4486C9.39865 39.4045 0.542969 30.6504 0.542969 19.9118C0.542969 12.9438 4.11235 7.93834 7.501 5.24818C11.6577 1.96265 14.4816 4.47641 15.4756 6.39481C15.3626 5.57894 15.0238 3.24158 14.0975 1.56574C16.1307 0.882172 18.3221 0.507313 20.6038 0.529363C31.6282 0.595515 40.529 9.32753 40.4839 20.0882ZM19.4516 8.88652C22.3433 6.96812 27.3359 5.90969 29.979 9.92289C28.3751 0.749868 21.4396 6.01995 19.4516 8.88652ZM15.4304 17.5524C16.0404 16.8909 16.7407 16.2293 17.554 15.634C21.1685 12.9218 25.122 12.2382 26.4097 14.1345C26.9067 14.8622 26.9292 15.8765 26.5452 16.9791C27.8329 14.9063 28.2395 12.9879 27.4488 11.9295C26.116 10.1654 21.9818 11.3782 18.2091 14.6417C17.1021 15.5458 16.1759 16.5601 15.4304 17.5524ZM9.12756 19.1841C10.9574 19.5149 12.9454 17.2437 13.5554 14.0684C14.1653 10.8931 13.1939 8.07065 11.364 7.71784C9.53419 7.38708 7.54618 9.65829 6.93623 12.8336C6.32627 15.9868 7.29768 18.8313 9.12756 19.1841ZM34.565 15.3473C17.057 26.7916 4.97081 20.9923 4.97081 20.9923C4.79008 24.9614 11.7707 37.1553 20.0842 37.3097C28.4203 37.464 34.565 15.3473 34.565 15.3473ZM7.43323 12.8997C7.99801 9.98904 9.71492 7.87219 11.2737 8.1809C12.8324 8.46756 13.6457 11.0695 13.1035 13.9802C12.5388 16.8909 10.8218 19.0077 9.2631 18.699C7.68173 18.4124 6.86845 15.8104 7.43323 12.8997ZM10.7541 15.3694C11.4544 15.5237 12.2225 14.6858 12.4936 13.5171C12.7647 12.3485 12.4032 11.268 11.7029 11.1357C11.2285 11.0254 10.7315 11.3782 10.37 11.9736C10.6863 12.1279 10.8444 12.5249 10.6863 12.8556C10.5508 13.1643 10.2345 13.3187 9.91824 13.2525C9.7827 14.2889 10.1215 15.215 10.7541 15.3694Z" fill="#05BC52"/>
</g>
<defs>
<clipPath id="clip0_1714_1715">
<rect width="42" height="40" fill="white"/>
</clipPath>
</defs>
</svg>
