<svg width="40" height="40" viewBox="0 0 40 40" fill="none" xmlns="http://www.w3.org/2000/svg">
<path d="M20 37.9169C19.8667 37.9169 19.7332 37.8951 19.6049 37.8518C16.9566 36.9685 3.75 31.8701 3.75 18.1468V8.33357C3.75 7.73857 4.17005 7.22339 4.75505 7.10839C12.8884 5.48172 15.7718 4.05189 19.4234 2.24022C19.7751 2.06522 20.2416 2.04203 20.5933 2.21703C24.1949 4.03203 27.0399 5.46672 35.2466 7.10839C35.8316 7.22505 36.2516 7.73857 36.2516 8.33357V18.1484C36.2516 31.8718 23.0451 36.9701 20.3967 37.8534C20.2667 37.8951 20.1333 37.9169 20 37.9169ZM6.25 9.35367V18.1468C6.25 29.5885 16.9467 34.247 20 35.342C23.0533 34.247 33.75 29.5868 33.75 18.1468V9.35367C26.3817 7.812 23.2832 6.36505 20.0248 4.73005C16.5632 6.44172 13.5583 7.827 6.25 9.35367ZM19.2367 24.2169L25.9033 17.5503C26.3917 17.0619 26.3917 16.2702 25.9033 15.7819C25.415 15.2936 24.6233 15.2936 24.1349 15.7819L18.3516 21.5652L15.9017 19.1152C15.4134 18.6269 14.6216 18.6269 14.1333 19.1152C13.645 19.6036 13.645 20.3953 14.1333 20.8836L17.4666 24.2169C17.71 24.4603 18.03 24.5836 18.35 24.5836C18.67 24.5836 18.9933 24.4619 19.2367 24.2169Z" fill="#00A8E8"/>
</svg>
