<svg width="53" height="18" viewBox="0 0 53 18" fill="none" xmlns="http://www.w3.org/2000/svg">
<path d="M27.6519 6.22023C27.6221 8.56553 29.742 9.87422 31.3389 10.6524C32.9795 11.4507 33.5306 11.9627 33.5241 12.6767C33.5119 13.7693 32.2154 14.2516 31.0022 14.2703C28.8856 14.3031 27.6549 13.6989 26.6766 13.2419L25.9141 16.8097C26.8957 17.262 28.7133 17.6565 30.5982 17.6738C35.0226 17.6738 37.9171 15.4898 37.9328 12.1036C37.9501 7.8061 31.9885 7.56823 32.0293 5.64735C32.0433 5.06489 32.5991 4.44333 33.817 4.2853C34.4198 4.20546 36.0838 4.14437 37.9705 5.01316L38.711 1.5612C37.6964 1.19177 36.3924 0.838016 34.7688 0.838016C30.6045 0.838016 27.6755 3.05175 27.6519 6.22023ZM45.8263 1.13535C45.0184 1.13535 44.3376 1.60661 44.0337 2.32979L37.7137 17.4203H42.1349L43.0147 14.9888H48.4172L48.9276 17.4203H52.8243L49.4239 1.13535H45.8263ZM46.4448 5.53452L47.7207 11.6497H44.2264L46.4448 5.53452ZM22.2915 1.13556L18.8065 17.4201H23.0195L26.5029 1.13515L22.2915 1.13556ZM16.059 1.13556L11.6739 12.2195L9.90003 2.79494C9.69189 1.74286 8.86994 1.13535 7.95715 1.13535H0.788879L0.688477 1.60824C2.16009 1.92757 3.83211 2.44262 4.84509 2.99371C5.46502 3.33035 5.64179 3.62464 5.84545 4.4246L9.20516 17.4203H13.6573L20.483 1.13535L16.059 1.13556Z" fill="url(#paint0_linear_42_12)"/>
<defs>
<linearGradient id="paint0_linear_42_12" x1="2397.58" y1="51.4465" x2="2446.32" y2="-1677.62" gradientUnits="userSpaceOnUse">
<stop stop-color="#132EB3"/>
<stop offset="1" stop-color="#254AA5"/>
</linearGradient>
</defs>
</svg>
