<svg width="75" height="30" viewBox="0 0 75 30" fill="none" xmlns="http://www.w3.org/2000/svg">
<path d="M15.648 9.63819C15.648 12.6782 14.864 14.9822 13.296 16.5502C11.728 18.1022 9.472 18.8782 6.528 18.8782C4.896 18.8782 3.376 18.7582 1.968 18.5182V1.23819C3.376 0.998191 4.896 0.878191 6.528 0.878191C9.456 0.878191 11.704 1.63819 13.272 3.15819C14.856 4.66219 15.648 6.82219 15.648 9.63819ZM13.128 9.63819C13.128 7.46219 12.568 5.82219 11.448 4.71819C10.328 3.59819 8.688 3.03819 6.528 3.03819C5.808 3.03819 5.168 3.09419 4.608 3.20619V16.5502C5.168 16.6622 5.808 16.7182 6.528 16.7182C8.768 16.7182 10.424 16.1422 11.496 14.9902C12.584 13.8222 13.128 12.0382 13.128 9.63819ZM21.1549 3.27819V8.27019H28.5949V10.3342H21.1549V16.4782H29.0749V18.6382H18.5149V1.11819H29.0749V3.27819H21.1549ZM31.5649 18.6382L37.8049 1.11819H40.6849L46.9249 18.6382H44.0929L42.5809 13.9822H35.8129L34.3009 18.6382H31.5649ZM36.4609 11.9182H41.9329L39.2209 3.51819H39.1729L36.4609 11.9182ZM52.4233 1.11819V16.4302H60.4633V18.6382H49.6633V1.11819H52.4233ZM68.3674 2.99019C67.3914 2.99019 66.6394 3.21419 66.1114 3.66219C65.5834 4.09419 65.3194 4.68619 65.3194 5.43819C65.3194 6.76619 66.2954 7.72619 68.2474 8.31819C70.3434 8.91019 71.8234 9.64619 72.6874 10.5262C73.5674 11.4062 74.0074 12.5502 74.0074 13.9582C74.0074 15.5422 73.4954 16.7582 72.4714 17.6062C71.4634 18.4542 70.0154 18.8782 68.1274 18.8782C66.1434 18.8782 64.3434 18.3982 62.7274 17.4382L63.4474 15.2782C64.8874 16.2382 66.4474 16.7182 68.1274 16.7182C69.1674 16.7182 69.9674 16.4782 70.5274 15.9982C71.0874 15.5182 71.3674 14.8382 71.3674 13.9582C71.3674 13.1262 71.1434 12.4702 70.6954 11.9902C70.2474 11.5102 69.4314 11.0862 68.2474 10.7182C66.3434 10.1582 64.9434 9.44619 64.0474 8.58219C63.1674 7.71819 62.7274 6.67019 62.7274 5.43819C62.7274 4.06219 63.2234 2.95819 64.2154 2.12619C65.2234 1.29419 66.6074 0.878191 68.3674 0.878191C70.1914 0.878191 71.9114 1.23819 73.5274 1.95819L72.9274 3.99819C71.5354 3.32619 70.0154 2.99019 68.3674 2.99019Z" fill="#00A8E8"/>
<path d="M2.817 29.6832C2.361 29.6832 1.95 29.5812 1.584 29.3772C1.224 29.1672 0.939 28.8822 0.729 28.5222C0.519 28.1562 0.414 27.7392 0.414 27.2712C0.414 26.7972 0.519 26.3802 0.729 26.0202C0.939 25.6602 1.224 25.3782 1.584 25.1742C1.944 24.9702 2.355 24.8682 2.817 24.8682C3.285 24.8682 3.699 24.9702 4.059 25.1742C4.425 25.3782 4.71 25.6602 4.914 26.0202C5.124 26.3802 5.229 26.7972 5.229 27.2712C5.229 27.7392 5.124 28.1562 4.914 28.5222C4.71 28.8822 4.425 29.1672 4.059 29.3772C3.693 29.5812 3.279 29.6832 2.817 29.6832ZM2.817 29.1162C3.159 29.1162 3.462 29.0412 3.726 28.8912C3.99 28.7352 4.197 28.5192 4.347 28.2432C4.503 27.9612 4.581 27.6372 4.581 27.2712C4.581 26.8992 4.503 26.5752 4.347 26.2992C4.197 26.0232 3.99 25.8102 3.726 25.6602C3.462 25.5042 3.162 25.4262 2.826 25.4262C2.49 25.4262 2.19 25.5042 1.926 25.6602C1.662 25.8102 1.452 26.0232 1.296 26.2992C1.14 26.5752 1.062 26.8992 1.062 27.2712C1.062 27.6372 1.14 27.9612 1.296 28.2432C1.452 28.5192 1.662 28.7352 1.926 28.8912C2.19 29.0412 2.487 29.1162 2.817 29.1162ZM9.12558 24.8682C9.50958 24.8682 9.84558 24.9432 10.1336 25.0932C10.4276 25.2372 10.6556 25.4592 10.8176 25.7592C10.9856 26.0592 11.0696 26.4372 11.0696 26.8932V29.6382H10.4306V26.9562C10.4306 26.4582 10.3046 26.0832 10.0526 25.8312C9.80658 25.5732 9.45858 25.4442 9.00858 25.4442C8.67258 25.4442 8.37858 25.5132 8.12658 25.6512C7.88058 25.7832 7.68858 25.9782 7.55058 26.2362C7.41858 26.4882 7.35258 26.7942 7.35258 27.1542V29.6382H6.71358V24.9132H7.32558V26.2092L7.22658 25.9662C7.37658 25.6242 7.61658 25.3572 7.94658 25.1652C8.27658 24.9672 8.66958 24.8682 9.12558 24.8682ZM12.6246 27.4782V26.9202H14.9826V27.4782H12.6246ZM16.5921 29.6382V22.9602H17.2311V29.6382H16.5921ZM19.1891 29.6382V24.9132H19.8281V29.6382H19.1891ZM19.5131 23.8692C19.3811 23.8692 19.2701 23.8242 19.1801 23.7342C19.0901 23.6442 19.0451 23.5362 19.0451 23.4102C19.0451 23.2842 19.0901 23.1792 19.1801 23.0952C19.2701 23.0052 19.3811 22.9602 19.5131 22.9602C19.6451 22.9602 19.7561 23.0022 19.8461 23.0862C19.9361 23.1702 19.9811 23.2752 19.9811 23.4012C19.9811 23.5332 19.9361 23.6442 19.8461 23.7342C19.7621 23.8242 19.6511 23.8692 19.5131 23.8692ZM24.1981 24.8682C24.5821 24.8682 24.9181 24.9432 25.2061 25.0932C25.5001 25.2372 25.7281 25.4592 25.8901 25.7592C26.0581 26.0592 26.1421 26.4372 26.1421 26.8932V29.6382H25.5031V26.9562C25.5031 26.4582 25.3771 26.0832 25.1251 25.8312C24.8791 25.5732 24.5311 25.4442 24.0811 25.4442C23.7451 25.4442 23.4511 25.5132 23.1991 25.6512C22.9531 25.7832 22.7611 25.9782 22.6231 26.2362C22.4911 26.4882 22.4251 26.7942 22.4251 27.1542V29.6382H21.7861V24.9132H22.3981V26.2092L22.2991 25.9662C22.4491 25.6242 22.6891 25.3572 23.0191 25.1652C23.3491 24.9672 23.7421 24.8682 24.1981 24.8682ZM30.0551 29.6832C29.5631 29.6832 29.1311 29.5812 28.7591 29.3772C28.3871 29.1672 28.0961 28.8822 27.8861 28.5222C27.6761 28.1562 27.5711 27.7392 27.5711 27.2712C27.5711 26.8032 27.6701 26.3892 27.8681 26.0292C28.0721 25.6692 28.3481 25.3872 28.6961 25.1832C29.0501 24.9732 29.4461 24.8682 29.8841 24.8682C30.3281 24.8682 30.7211 24.9702 31.0631 25.1742C31.4111 25.3722 31.6841 25.6542 31.8821 26.0202C32.0801 26.3802 32.1791 26.7972 32.1791 27.2712C32.1791 27.3012 32.1761 27.3342 32.1701 27.3702C32.1701 27.4002 32.1701 27.4332 32.1701 27.4692H28.0571V26.9922H31.8281L31.5761 27.1812C31.5761 26.8392 31.5011 26.5362 31.3511 26.2722C31.2071 26.0022 31.0091 25.7922 30.7571 25.6422C30.5051 25.4922 30.2141 25.4172 29.8841 25.4172C29.5601 25.4172 29.2691 25.4922 29.0111 25.6422C28.7531 25.7922 28.5521 26.0022 28.4081 26.2722C28.2641 26.5422 28.1921 26.8512 28.1921 27.1992V27.2982C28.1921 27.6582 28.2701 27.9762 28.4261 28.2522C28.5881 28.5222 28.8101 28.7352 29.0921 28.8912C29.3801 29.0412 29.7071 29.1162 30.0731 29.1162C30.3611 29.1162 30.6281 29.0652 30.8741 28.9632C31.1261 28.8612 31.3421 28.7052 31.5221 28.4952L31.8821 28.9092C31.6721 29.1612 31.4081 29.3532 31.0901 29.4852C30.7781 29.6172 30.4331 29.6832 30.0551 29.6832ZM36.2133 29.6382V24.9132H36.8613L39.0033 28.5402H38.7333L40.9113 24.9132H41.5053V29.6382H40.9203V25.6422L41.0373 25.6962L39.0033 29.0622H38.7153L36.6633 25.6602L36.7983 25.6332V29.6382H36.2133ZM46.4376 29.6382V28.5942L46.4106 28.4232V26.6772C46.4106 26.2752 46.2966 25.9662 46.0686 25.7502C45.8466 25.5342 45.5136 25.4262 45.0696 25.4262C44.7636 25.4262 44.4726 25.4772 44.1966 25.5792C43.9206 25.6812 43.6866 25.8162 43.4946 25.9842L43.2066 25.5072C43.4466 25.3032 43.7346 25.1472 44.0706 25.0392C44.4066 24.9252 44.7606 24.8682 45.1326 24.8682C45.7446 24.8682 46.2156 25.0212 46.5456 25.3272C46.8816 25.6272 47.0496 26.0862 47.0496 26.7042V29.6382H46.4376ZM44.8086 29.6832C44.4546 29.6832 44.1456 29.6262 43.8816 29.5122C43.6236 29.3922 43.4256 29.2302 43.2876 29.0262C43.1496 28.8162 43.0806 28.5762 43.0806 28.3062C43.0806 28.0602 43.1376 27.8382 43.2516 27.6402C43.3716 27.4362 43.5636 27.2742 43.8276 27.1542C44.0976 27.0282 44.4576 26.9652 44.9076 26.9652H46.5366V27.4422H44.9256C44.4696 27.4422 44.1516 27.5232 43.9716 27.6852C43.7976 27.8472 43.7106 28.0482 43.7106 28.2882C43.7106 28.5582 43.8156 28.7742 44.0256 28.9362C44.2356 29.0982 44.5296 29.1792 44.9076 29.1792C45.2676 29.1792 45.5766 29.0982 45.8346 28.9362C46.0986 28.7682 46.2906 28.5282 46.4106 28.2162L46.5546 28.6572C46.4346 28.9692 46.2246 29.2182 45.9246 29.4042C45.6306 29.5902 45.2586 29.6832 44.8086 29.6832ZM48.9307 29.6382V24.9132H52.2787V25.4712H49.4077L49.5697 25.3092V29.6382H48.9307ZM56.3162 29.6382V28.5942L56.2892 28.4232V26.6772C56.2892 26.2752 56.1752 25.9662 55.9472 25.7502C55.7252 25.5342 55.3922 25.4262 54.9482 25.4262C54.6422 25.4262 54.3512 25.4772 54.0752 25.5792C53.7992 25.6812 53.5652 25.8162 53.3732 25.9842L53.0852 25.5072C53.3252 25.3032 53.6132 25.1472 53.9492 25.0392C54.2852 24.9252 54.6392 24.8682 55.0112 24.8682C55.6232 24.8682 56.0942 25.0212 56.4242 25.3272C56.7602 25.6272 56.9282 26.0862 56.9282 26.7042V29.6382H56.3162ZM54.6872 29.6832C54.3332 29.6832 54.0242 29.6262 53.7602 29.5122C53.5022 29.3922 53.3042 29.2302 53.1662 29.0262C53.0282 28.8162 52.9592 28.5762 52.9592 28.3062C52.9592 28.0602 53.0162 27.8382 53.1302 27.6402C53.2502 27.4362 53.4422 27.2742 53.7062 27.1542C53.9762 27.0282 54.3362 26.9652 54.7862 26.9652H56.4152V27.4422H54.8042C54.3482 27.4422 54.0302 27.5232 53.8502 27.6852C53.6762 27.8472 53.5892 28.0482 53.5892 28.2882C53.5892 28.5582 53.6942 28.7742 53.9042 28.9362C54.1142 29.0982 54.4082 29.1792 54.7862 29.1792C55.1462 29.1792 55.4552 29.0982 55.7132 28.9362C55.9772 28.7682 56.1692 28.5282 56.2892 28.2162L56.4332 28.6572C56.3132 28.9692 56.1032 29.2182 55.8032 29.4042C55.5092 29.5902 55.1372 29.6832 54.6872 29.6832ZM59.9816 29.6922C59.6396 29.6922 59.3006 29.6442 58.9646 29.5482C58.6286 29.4522 58.3316 29.3052 58.0736 29.1072L58.2806 28.6302C58.5086 28.7982 58.7726 28.9272 59.0726 29.0172C59.3726 29.1012 59.6696 29.1432 59.9636 29.1432C60.2576 29.1372 60.5126 29.0952 60.7286 29.0172C60.9446 28.9392 61.1126 28.8312 61.2326 28.6932C61.3526 28.5552 61.4126 28.3992 61.4126 28.2252C61.4126 27.9732 61.2986 27.7782 61.0706 27.6402C60.8426 27.4962 60.5306 27.4242 60.1346 27.4242H59.3246V26.9562H60.0896C60.3236 26.9562 60.5306 26.9262 60.7106 26.8662C60.8906 26.8062 61.0286 26.7192 61.1246 26.6052C61.2266 26.4912 61.2776 26.3562 61.2776 26.2002C61.2776 26.0322 61.2176 25.8882 61.0976 25.7682C60.9836 25.6482 60.8246 25.5582 60.6206 25.4982C60.4166 25.4382 60.1856 25.4082 59.9276 25.4082C59.6936 25.4142 59.4506 25.4502 59.1986 25.5162C58.9466 25.5762 58.6976 25.6692 58.4516 25.7952L58.2716 25.3002C58.5476 25.1562 58.8206 25.0482 59.0906 24.9762C59.3666 24.8982 59.6426 24.8592 59.9186 24.8592C60.2966 24.8472 60.6356 24.8922 60.9356 24.9942C61.2416 25.0962 61.4846 25.2432 61.6646 25.4352C61.8446 25.6212 61.9346 25.8462 61.9346 26.1102C61.9346 26.3442 61.8626 26.5482 61.7186 26.7222C61.5746 26.8962 61.3826 27.0312 61.1426 27.1272C60.9026 27.2232 60.6296 27.2712 60.3236 27.2712L60.3506 27.1002C60.8906 27.1002 61.3106 27.2052 61.6106 27.4152C61.9166 27.6252 62.0696 27.9102 62.0696 28.2702C62.0696 28.5522 61.9766 28.8012 61.7906 29.0172C61.6046 29.2272 61.3526 29.3922 61.0346 29.5122C60.7226 29.6322 60.3716 29.6922 59.9816 29.6922ZM63.7002 29.6382V24.9132H64.3392V28.6662L67.4982 24.9132H68.0652V29.6382H67.4262V25.8762L64.2762 29.6382H63.7002ZM70.0765 29.6382V24.9132H70.7155V27.0012H73.6945V24.9132H74.3335V29.6382H73.6945V27.5502H70.7155V29.6382H70.0765Z" fill="#9CA3AF"/>
</svg>
