<svg width="74" height="30" viewBox="0 0 74 30" fill="none" xmlns="http://www.w3.org/2000/svg">
<path d="M6.42078 1.848C5.58878 1.848 4.81278 1.92 4.09278 2.064V16.416C4.81278 16.56 5.58878 16.632 6.42078 16.632C11.2688 16.632 13.6928 14.088 13.6928 9C13.6928 6.632 13.0768 4.848 11.8448 3.648C10.6128 2.448 8.80478 1.848 6.42078 1.848ZM15.5408 9C15.5408 12.024 14.7568 14.32 13.1888 15.888C11.6208 17.456 9.36478 18.24 6.42078 18.24C4.99678 18.24 3.58078 18.112 2.17278 17.856V0.623999C3.61278 0.368 5.02878 0.24 6.42078 0.24C9.34878 0.24 11.5968 1 13.1648 2.52C14.7488 4.024 15.5408 6.184 15.5408 9ZM20.4522 2.088V7.8H28.3002V9.336H20.4522V16.392H28.7802V18H18.5322V0.48H28.7802V2.088H20.4522ZM31.4181 18L37.8261 0.48H39.9861L46.3701 18H44.3301L42.5541 12.888H35.1621L33.4101 18H31.4181ZM35.6901 11.352H42.0261L38.8821 2.208H38.8341L35.6901 11.352ZM51.2507 0.48V16.368H59.8187V18H49.2587V0.48H51.2507ZM67.677 1.8C66.573 1.8 65.717 2.048 65.109 2.544C64.501 3.024 64.197 3.696 64.197 4.56C64.197 6.112 65.333 7.232 67.605 7.92C69.589 8.496 70.997 9.216 71.829 10.08C72.677 10.944 73.101 12.064 73.101 13.44C73.101 14.992 72.613 16.184 71.637 17.016C70.677 17.832 69.301 18.24 67.509 18.24C65.525 18.24 63.765 17.736 62.229 16.728L62.805 15.144C64.197 16.136 65.765 16.632 67.509 16.632C68.693 16.632 69.597 16.36 70.221 15.816C70.861 15.272 71.181 14.48 71.181 13.44C71.181 12.48 70.909 11.72 70.365 11.16C69.837 10.584 68.901 10.088 67.557 9.672C64.053 8.632 62.301 6.928 62.301 4.56C62.301 3.248 62.773 2.2 63.717 1.416C64.677 0.631999 65.997 0.24 67.677 0.24C69.485 0.24 71.165 0.616 72.717 1.368L72.237 2.856C70.845 2.152 69.325 1.8 67.677 1.8Z" fill="#00A8E8"/>
<path d="M2.94978 29.045C2.49378 29.045 2.08278 28.943 1.71678 28.739C1.35678 28.529 1.07178 28.244 0.861782 27.884C0.651782 27.518 0.546782 27.101 0.546782 26.633C0.546782 26.159 0.651782 25.742 0.861782 25.382C1.07178 25.022 1.35678 24.74 1.71678 24.536C2.07678 24.332 2.48778 24.23 2.94978 24.23C3.41778 24.23 3.83178 24.332 4.19178 24.536C4.55778 24.74 4.84278 25.022 5.04678 25.382C5.25678 25.742 5.36178 26.159 5.36178 26.633C5.36178 27.101 5.25678 27.518 5.04678 27.884C4.84278 28.244 4.55778 28.529 4.19178 28.739C3.82578 28.943 3.41178 29.045 2.94978 29.045ZM2.94978 28.478C3.29178 28.478 3.59478 28.403 3.85878 28.253C4.12278 28.097 4.32978 27.881 4.47978 27.605C4.63578 27.323 4.71378 26.999 4.71378 26.633C4.71378 26.261 4.63578 25.937 4.47978 25.661C4.32978 25.385 4.12278 25.172 3.85878 25.022C3.59478 24.866 3.29478 24.788 2.95878 24.788C2.62278 24.788 2.32278 24.866 2.05878 25.022C1.79478 25.172 1.58478 25.385 1.42878 25.661C1.27278 25.937 1.19478 26.261 1.19478 26.633C1.19478 26.999 1.27278 27.323 1.42878 27.605C1.58478 27.881 1.79478 28.097 2.05878 28.253C2.32278 28.403 2.61978 28.478 2.94978 28.478ZM9.07836 24.23C9.46236 24.23 9.79836 24.305 10.0864 24.455C10.3804 24.599 10.6084 24.821 10.7704 25.121C10.9384 25.421 11.0224 25.799 11.0224 26.255V29H10.3834V26.318C10.3834 25.82 10.2574 25.445 10.0054 25.193C9.75936 24.935 9.41136 24.806 8.96136 24.806C8.62536 24.806 8.33136 24.875 8.07936 25.013C7.83336 25.145 7.64136 25.34 7.50336 25.598C7.37136 25.85 7.30536 26.156 7.30536 26.516V29H6.66636V24.275H7.27836V25.571L7.17936 25.328C7.32936 24.986 7.56936 24.719 7.89936 24.527C8.22936 24.329 8.62236 24.23 9.07836 24.23ZM12.3974 26.84V26.282H14.7554V26.84H12.3974ZM16.1849 29V22.322H16.8239V29H16.1849ZM18.6019 29V24.275H19.2409V29H18.6019ZM18.9259 23.231C18.7939 23.231 18.6829 23.186 18.5929 23.096C18.5029 23.006 18.4579 22.898 18.4579 22.772C18.4579 22.646 18.5029 22.541 18.5929 22.457C18.6829 22.367 18.7939 22.322 18.9259 22.322C19.0579 22.322 19.1689 22.364 19.2589 22.448C19.3489 22.532 19.3939 22.637 19.3939 22.763C19.3939 22.895 19.3489 23.006 19.2589 23.096C19.1749 23.186 19.0639 23.231 18.9259 23.231ZM23.4309 24.23C23.8149 24.23 24.1509 24.305 24.4389 24.455C24.7329 24.599 24.9609 24.821 25.1229 25.121C25.2909 25.421 25.3749 25.799 25.3749 26.255V29H24.7359V26.318C24.7359 25.82 24.6099 25.445 24.3579 25.193C24.1119 24.935 23.7639 24.806 23.3139 24.806C22.9779 24.806 22.6839 24.875 22.4319 25.013C22.1859 25.145 21.9939 25.34 21.8559 25.598C21.7239 25.85 21.6579 26.156 21.6579 26.516V29H21.0189V24.275H21.6309V25.571L21.5319 25.328C21.6819 24.986 21.9219 24.719 22.2519 24.527C22.5819 24.329 22.9749 24.23 23.4309 24.23ZM29.1079 29.045C28.6159 29.045 28.1839 28.943 27.8119 28.739C27.4399 28.529 27.1489 28.244 26.9389 27.884C26.7289 27.518 26.6239 27.101 26.6239 26.633C26.6239 26.165 26.7229 25.751 26.9209 25.391C27.1249 25.031 27.4009 24.749 27.7489 24.545C28.1029 24.335 28.4989 24.23 28.9369 24.23C29.3809 24.23 29.7739 24.332 30.1159 24.536C30.4639 24.734 30.7369 25.016 30.9349 25.382C31.1329 25.742 31.2319 26.159 31.2319 26.633C31.2319 26.663 31.2289 26.696 31.2229 26.732C31.2229 26.762 31.2229 26.795 31.2229 26.831H27.1099V26.354H30.8809L30.6289 26.543C30.6289 26.201 30.5539 25.898 30.4039 25.634C30.2599 25.364 30.0619 25.154 29.8099 25.004C29.5579 24.854 29.2669 24.779 28.9369 24.779C28.6129 24.779 28.3219 24.854 28.0639 25.004C27.8059 25.154 27.6049 25.364 27.4609 25.634C27.3169 25.904 27.2449 26.213 27.2449 26.561V26.66C27.2449 27.02 27.3229 27.338 27.4789 27.614C27.6409 27.884 27.8629 28.097 28.1449 28.253C28.4329 28.403 28.7599 28.478 29.1259 28.478C29.4139 28.478 29.6809 28.427 29.9269 28.325C30.1789 28.223 30.3949 28.067 30.5749 27.857L30.9349 28.271C30.7249 28.523 30.4609 28.715 30.1429 28.847C29.8309 28.979 29.4859 29.045 29.1079 29.045ZM34.906 29V24.275H35.554L37.696 27.902H37.426L39.604 24.275H40.198V29H39.613V25.004L39.73 25.058L37.696 28.424H37.408L35.356 25.022L35.491 24.995V29H34.906ZM44.9504 29V27.956L44.9234 27.785V26.039C44.9234 25.637 44.8094 25.328 44.5814 25.112C44.3594 24.896 44.0264 24.788 43.5824 24.788C43.2764 24.788 42.9854 24.839 42.7094 24.941C42.4334 25.043 42.1994 25.178 42.0074 25.346L41.7194 24.869C41.9594 24.665 42.2474 24.509 42.5834 24.401C42.9194 24.287 43.2734 24.23 43.6454 24.23C44.2574 24.23 44.7284 24.383 45.0584 24.689C45.3944 24.989 45.5624 25.448 45.5624 26.066V29H44.9504ZM43.3214 29.045C42.9674 29.045 42.6584 28.988 42.3944 28.874C42.1364 28.754 41.9384 28.592 41.8004 28.388C41.6624 28.178 41.5934 27.938 41.5934 27.668C41.5934 27.422 41.6504 27.2 41.7644 27.002C41.8844 26.798 42.0764 26.636 42.3404 26.516C42.6104 26.39 42.9704 26.327 43.4204 26.327H45.0494V26.804H43.4384C42.9824 26.804 42.6644 26.885 42.4844 27.047C42.3104 27.209 42.2234 27.41 42.2234 27.65C42.2234 27.92 42.3284 28.136 42.5384 28.298C42.7484 28.46 43.0424 28.541 43.4204 28.541C43.7804 28.541 44.0894 28.46 44.3474 28.298C44.6114 28.13 44.8034 27.89 44.9234 27.578L45.0674 28.019C44.9474 28.331 44.7374 28.58 44.4374 28.766C44.1434 28.952 43.7714 29.045 43.3214 29.045ZM47.2635 29V24.275H50.6115V24.833H47.7405L47.9025 24.671V29H47.2635ZM54.4689 29V27.956L54.4419 27.785V26.039C54.4419 25.637 54.3279 25.328 54.0999 25.112C53.8779 24.896 53.5449 24.788 53.1009 24.788C52.7949 24.788 52.5039 24.839 52.2279 24.941C51.9519 25.043 51.7179 25.178 51.5259 25.346L51.2379 24.869C51.4779 24.665 51.7659 24.509 52.1019 24.401C52.4379 24.287 52.7919 24.23 53.1639 24.23C53.7759 24.23 54.2469 24.383 54.5769 24.689C54.9129 24.989 55.0809 25.448 55.0809 26.066V29H54.4689ZM52.8399 29.045C52.4859 29.045 52.1769 28.988 51.9129 28.874C51.6549 28.754 51.4569 28.592 51.3189 28.388C51.1809 28.178 51.1119 27.938 51.1119 27.668C51.1119 27.422 51.1689 27.2 51.2829 27.002C51.4029 26.798 51.5949 26.636 51.8589 26.516C52.1289 26.39 52.4889 26.327 52.9389 26.327H54.5679V26.804H52.9569C52.5009 26.804 52.1829 26.885 52.0029 27.047C51.8289 27.209 51.7419 27.41 51.7419 27.65C51.7419 27.92 51.8469 28.136 52.0569 28.298C52.2669 28.46 52.5609 28.541 52.9389 28.541C53.2989 28.541 53.6079 28.46 53.8659 28.298C54.1299 28.13 54.3219 27.89 54.4419 27.578L54.5859 28.019C54.4659 28.331 54.2559 28.58 53.9559 28.766C53.6619 28.952 53.2899 29.045 52.8399 29.045ZM57.9543 29.054C57.6123 29.054 57.2733 29.006 56.9373 28.91C56.6013 28.814 56.3043 28.667 56.0463 28.469L56.2533 27.992C56.4813 28.16 56.7453 28.289 57.0453 28.379C57.3453 28.463 57.6423 28.505 57.9363 28.505C58.2303 28.499 58.4853 28.457 58.7013 28.379C58.9173 28.301 59.0853 28.193 59.2053 28.055C59.3253 27.917 59.3853 27.761 59.3853 27.587C59.3853 27.335 59.2713 27.14 59.0433 27.002C58.8153 26.858 58.5033 26.786 58.1073 26.786H57.2973V26.318H58.0623C58.2963 26.318 58.5033 26.288 58.6833 26.228C58.8633 26.168 59.0013 26.081 59.0973 25.967C59.1993 25.853 59.2503 25.718 59.2503 25.562C59.2503 25.394 59.1903 25.25 59.0703 25.13C58.9563 25.01 58.7973 24.92 58.5933 24.86C58.3893 24.8 58.1583 24.77 57.9003 24.77C57.6663 24.776 57.4233 24.812 57.1713 24.878C56.9193 24.938 56.6703 25.031 56.4243 25.157L56.2443 24.662C56.5203 24.518 56.7933 24.41 57.0633 24.338C57.3393 24.26 57.6153 24.221 57.8913 24.221C58.2693 24.209 58.6083 24.254 58.9083 24.356C59.2143 24.458 59.4573 24.605 59.6373 24.797C59.8173 24.983 59.9073 25.208 59.9073 25.472C59.9073 25.706 59.8353 25.91 59.6913 26.084C59.5473 26.258 59.3553 26.393 59.1153 26.489C58.8753 26.585 58.6023 26.633 58.2963 26.633L58.3233 26.462C58.8633 26.462 59.2833 26.567 59.5833 26.777C59.8893 26.987 60.0423 27.272 60.0423 27.632C60.0423 27.914 59.9493 28.163 59.7633 28.379C59.5773 28.589 59.3253 28.754 59.0073 28.874C58.6953 28.994 58.3443 29.054 57.9543 29.054ZM61.493 29V24.275H62.132V28.028L65.291 24.275H65.858V29H65.219V25.238L62.069 29H61.493ZM67.6892 29V24.275H68.3282V26.363H71.3072V24.275H71.9462V29H71.3072V26.912H68.3282V29H67.6892Z" fill="#9CA3AF"/>
</svg>
