<svg width="20" height="20" viewBox="0 0 20 20" fill="none" xmlns="http://www.w3.org/2000/svg">
<path d="M15.0766 10.5175L12.791 4.88693C12.6196 4.45543 12.2006 4.20285 11.7625 4.28705C8.05801 4.93956 7.44849 2.34003 7.07709 0.782416L7.00094 0.46668C6.97237 0.350912 6.86757 0.0772848 6.47712 0.0141383C6.03906 -0.0595325 5.02011 0.119374 4.23921 1.40335L0.372814 8.06531C-0.293806 9.22299 -0.0462181 10.7701 0.953712 11.591L10.4578 19.4738C10.8673 19.8106 11.372 20 11.8863 20H18.0954C19.1429 20 20 19.0528 20 17.8951V15.9797C20 12.9802 17.7906 10.528 15.067 10.528L15.0766 10.5175ZM5.03918 1.97168C5.44867 1.30864 5.9153 1.10867 6.1629 1.05604C6.52478 2.58208 7.38185 6.1183 11.9244 5.30792L12.4291 6.56032H10.0007C9.73405 6.56032 9.52454 6.79186 9.52454 7.08654C9.52454 7.38123 9.73405 7.61276 10.0007 7.61276H12.8576L13.4957 9.19143H10.953C10.6864 9.19143 10.4769 9.42296 10.4769 9.71765C10.4769 10.0123 10.6864 10.2439 10.953 10.2439H13.9242L14.2004 10.9385C14.3528 11.3173 14.6956 11.5594 15.067 11.5594C17.2002 11.5594 18.9334 13.4328 19.0286 15.7692H12.8291C12.5244 15.7692 12.2196 15.6534 11.972 15.4534L2.00129 7.19178L5.02965 1.97168H5.03918ZM18.0954 18.937H11.8863C11.5815 18.937 11.2768 18.8213 11.0292 18.6213L1.52514 10.7385C0.934701 10.2439 0.782286 9.31771 1.18226 8.6231L1.49654 8.07582L11.4101 16.2954C11.8196 16.6322 12.3243 16.8216 12.8386 16.8216H19.0477V17.8741C19.0477 18.4529 18.6191 18.9265 18.0954 18.9265V18.937ZM7.61991 19.4632C7.61991 19.7579 7.4104 19.9895 7.14376 19.9895H0.477555C0.210907 19.9895 0.00139764 19.7579 0.00139764 19.4632C0.00139764 19.1686 0.210907 18.937 0.477555 18.937H7.14376C7.4104 18.937 7.61991 19.1686 7.61991 19.4632ZM0.00139764 15.7797C0.00139764 15.485 0.210907 15.2535 0.477555 15.2535H2.38218C2.64883 15.2535 2.85834 15.485 2.85834 15.7797C2.85834 16.0744 2.64883 16.3059 2.38218 16.3059H0.477555C0.210907 16.3059 0.00139764 16.0744 0.00139764 15.7797Z" fill="#00171F"/>
</svg>
