<svg width="17" height="21" viewBox="0 0 17 21" fill="none" xmlns="http://www.w3.org/2000/svg">
<path d="M16.5462 14.2902C14.3043 13.2271 14.2517 11.2799 14.2622 10.9009V10.8799C14.2622 9.51158 14.8411 8.51164 16.1042 7.74327C16.2305 7.66959 16.3147 7.54328 16.3462 7.40645C16.3778 7.26961 16.3462 7.12227 16.262 6.99597C15.3884 5.7329 14.0517 5.01715 12.3149 4.88031C11.8939 4.84874 11.4729 4.90137 11.0624 4.98558C11.3045 4.78559 11.5466 4.54349 11.7781 4.28035C13.0623 2.75414 12.957 1.32267 12.9149 0.838492C12.8939 0.554301 12.6412 0.333273 12.3571 0.354324C11.2308 0.417477 9.90459 1.10162 9.1257 2.00682C8.23102 3.01727 7.81 4.20667 7.91526 5.43817C7.91526 5.50132 7.93629 5.55395 7.95734 5.60658C7.83103 5.56448 7.70474 5.51185 7.57843 5.46974C6.88375 5.21713 6.09433 4.93293 5.34702 4.93293C2.69457 4.97503 0 7.10121 0 11.0904C0 12.2482 0.210518 13.4587 0.631542 14.7007C1.1473 16.1743 3.13663 20.3529 5.56804 20.3529C5.58909 20.3529 5.61014 20.3529 5.63119 20.3529C6.2101 20.3424 6.69429 20.1529 7.15742 19.974C7.67317 19.774 8.14682 19.5951 8.79941 19.5951C9.38884 19.5951 9.84144 19.774 10.3151 19.953C10.8203 20.1529 11.3361 20.3529 12.0097 20.3529C14.4832 20.3214 16.3462 16.3321 16.8094 14.9428C16.8936 14.6902 16.7778 14.4165 16.5357 14.3007L16.5462 14.2902ZM9.92565 2.68047C10.3993 2.12261 11.1677 1.67 11.8834 1.48054C11.8518 2.00682 11.6729 2.77519 10.9782 3.59619C10.5256 4.12247 9.83092 4.73296 8.96782 4.84874C9.02045 4.08037 9.34674 3.34359 9.92565 2.69101V2.68047ZM12.0202 19.2793C11.5466 19.2793 11.1571 19.1319 10.7151 18.953C10.1993 18.753 9.60986 18.5215 8.82045 18.5215C7.9784 18.5215 7.35741 18.7636 6.79955 18.9741C6.37853 19.132 6.02063 19.2688 5.62066 19.2793C5.61013 19.2793 5.59961 19.2793 5.58908 19.2793C4.0313 19.2793 2.2209 16.0164 1.64199 14.3428C1.26307 13.2271 1.06309 12.1219 1.06309 11.0799C1.06309 7.61698 3.29451 6.00656 5.36805 5.97498C5.92591 5.97498 6.62059 6.22758 7.23107 6.44861C7.7784 6.6486 8.20998 6.80651 8.57838 6.80651C8.89415 6.80651 9.26251 6.66965 9.76774 6.48019C10.5045 6.20653 11.4203 5.85919 12.2518 5.93287C13.4728 6.0276 14.399 6.43809 15.0832 7.17488C13.8412 8.10113 13.2201 9.34317 13.2201 10.8799C13.2096 11.343 13.2728 13.6376 15.6831 15.027C15.0306 16.7006 13.5044 19.2688 12.0308 19.2898L12.0202 19.2793Z" fill="#00171F"/>
</svg>
