<svg width="20" height="13" viewBox="0 0 20 13" fill="none" xmlns="http://www.w3.org/2000/svg">
<path d="M17.5 3.70399V9.70399C17.5 10.975 16.771 11.704 15.5 11.704H11C10.724 11.704 10.5 11.48 10.5 11.204C10.5 10.928 10.724 10.704 11 10.704H15.5C16.22 10.704 16.5 10.424 16.5 9.70399V3.70399C16.5 2.98399 16.22 2.70399 15.5 2.70399H12C11.724 2.70399 11.5 2.47999 11.5 2.20399C11.5 1.92799 11.724 1.70399 12 1.70399H15.5C16.771 1.70399 17.5 2.43299 17.5 3.70399ZM6 10.704H2.5C1.78 10.704 1.5 10.424 1.5 9.70399V3.70399C1.5 2.98399 1.78 2.70399 2.5 2.70399H7C7.276 2.70399 7.5 2.47999 7.5 2.20399C7.5 1.92799 7.276 1.70399 7 1.70399H2.5C1.229 1.70399 0.5 2.43299 0.5 3.70399V9.70399C0.5 10.975 1.229 11.704 2.5 11.704H6C6.276 11.704 6.5 11.48 6.5 11.204C6.5 10.928 6.276 10.704 6 10.704ZM19 4.70399C18.724 4.70399 18.5 4.92799 18.5 5.20399V8.20399C18.5 8.47999 18.724 8.70399 19 8.70399C19.276 8.70399 19.5 8.47999 19.5 8.20399V5.20399C19.5 4.92799 19.276 4.70399 19 4.70399ZM12.146 6.73695L8.31689 12.4821C8.22189 12.6251 8.06388 12.705 7.90088 12.705C7.83288 12.705 7.76397 12.691 7.69897 12.662C7.47597 12.564 7.35702 12.3199 7.41602 12.0839L8.36108 8.30506H6.72803C6.34003 8.30506 5.985 8.09289 5.802 7.74989C5.619 7.40689 5.63898 6.99501 5.85498 6.67201L9.68408 0.926889C9.81908 0.723889 10.081 0.648957 10.302 0.746957C10.525 0.844957 10.644 1.08908 10.585 1.32508L9.63989 5.10389H11.2729C11.6609 5.10389 12.016 5.31607 12.199 5.65907C12.382 6.00207 12.361 6.41395 12.146 6.73695ZM11.313 6.18202L9.35205 6.10389C9.11205 6.10389 8.88894 5.99602 8.74194 5.80702C8.59394 5.61802 8.54212 5.37598 8.59912 5.14198L8.91309 3.88392L6.68506 7.22596L8.646 7.30409C8.886 7.30409 9.1091 7.41196 9.2561 7.60096C9.4041 7.78996 9.45593 8.032 9.39893 8.266L9.08496 9.52406L11.313 6.18202Z" fill="#00171F"/>
</svg>
