<svg width="18" height="21" viewBox="0 0 18 21" fill="none" xmlns="http://www.w3.org/2000/svg">
<path d="M14.2105 0.352936H3.68421C1.27368 0.352936 0 1.62662 0 4.03715V16.6687C0 19.0793 1.27368 20.3529 3.68421 20.3529H14.2105C16.6211 20.3529 17.8947 19.0793 17.8947 16.6687V4.03715C17.8947 1.62662 16.6211 0.352936 14.2105 0.352936ZM16.8421 16.6687C16.8421 18.4887 16.0305 19.3003 14.2105 19.3003H3.68421C1.86421 19.3003 1.05263 18.4887 1.05263 16.6687V4.03715C1.05263 2.21715 1.86421 1.40557 3.68421 1.40557H14.2105C16.0305 1.40557 16.8421 2.21715 16.8421 4.03715V16.6687ZM13.6842 6.14241C13.6842 6.43294 13.4484 6.66873 13.1579 6.66873H7.89474C7.60421 6.66873 7.36842 6.43294 7.36842 6.14241C7.36842 5.85188 7.60421 5.61609 7.89474 5.61609H13.1579C13.4484 5.61609 13.6842 5.85188 13.6842 6.14241ZM13.6842 10.3529C13.6842 10.6435 13.4484 10.8793 13.1579 10.8793H7.89474C7.60421 10.8793 7.36842 10.6435 7.36842 10.3529C7.36842 10.0624 7.60421 9.82662 7.89474 9.82662H13.1579C13.4484 9.82662 13.6842 10.0624 13.6842 10.3529ZM13.6842 14.5635C13.6842 14.854 13.4484 15.0898 13.1579 15.0898H7.89474C7.60421 15.0898 7.36842 14.854 7.36842 14.5635C7.36842 14.2729 7.60421 14.0371 7.89474 14.0371H13.1579C13.4484 14.0371 13.6842 14.2729 13.6842 14.5635ZM5.52632 6.14241C5.52632 6.5782 5.17263 6.93188 4.73684 6.93188C4.30105 6.93188 3.94737 6.5782 3.94737 6.14241C3.94737 5.70662 4.30105 5.35294 4.73684 5.35294C5.17263 5.35294 5.52632 5.70662 5.52632 6.14241ZM5.52632 10.3529C5.52632 10.7887 5.17263 11.1424 4.73684 11.1424C4.30105 11.1424 3.94737 10.7887 3.94737 10.3529C3.94737 9.91715 4.30105 9.56346 4.73684 9.56346C5.17263 9.56346 5.52632 9.91715 5.52632 10.3529ZM5.52632 14.5635C5.52632 14.9993 5.17263 15.3529 4.73684 15.3529C4.30105 15.3529 3.94737 14.9993 3.94737 14.5635C3.94737 14.1277 4.30105 13.774 4.73684 13.774C5.17263 13.774 5.52632 14.1277 5.52632 14.5635Z" fill="#00171F"/>
</svg>
