<svg width="20" height="21" viewBox="0 0 20 21" fill="none" xmlns="http://www.w3.org/2000/svg">
<path d="M19.6146 9.92398C19.963 9.58504 20.0872 9.08607 19.9377 8.62292C19.7872 8.15976 19.3934 7.82823 18.9103 7.75771L15.5799 7.2756C15.5093 7.26507 15.4483 7.22082 15.4167 7.15661L13.9736 4.24616C13.7483 3.79249 13.2935 3.51035 12.7872 3.51035C12.2798 3.51035 11.8252 3.79249 11.5999 4.24616L10.1568 7.1577C10.1252 7.22086 10.0641 7.26507 9.9936 7.2756L6.66304 7.75771C6.17989 7.82718 5.78626 8.15871 5.63573 8.62292C5.48521 9.08607 5.61048 9.58398 5.9589 9.92398L8.36725 12.2608C8.41883 12.3102 8.44205 12.3829 8.43047 12.4524L7.87988 15.6471C7.79461 16.146 7.99466 16.6408 8.40413 16.9386C8.81781 17.2386 9.35144 17.2766 9.7988 17.0418L12.6862 15.5313C12.7483 15.4976 12.8262 15.4976 12.8893 15.5313L15.7777 17.0429C15.9735 17.145 16.184 17.1955 16.3935 17.1955C16.6672 17.1955 16.9388 17.1102 17.1704 16.9408C17.5798 16.6429 17.7809 16.1482 17.6956 15.6492L17.144 12.4503C17.1324 12.3808 17.1557 12.3092 17.2072 12.2597L19.6146 9.92398ZM16.1062 12.6313L16.6566 15.8281C16.6819 15.9766 16.5915 16.0607 16.5493 16.0902C16.5083 16.1197 16.4009 16.1807 16.2641 16.1113L13.3757 14.5997C13.1904 14.5029 12.9883 14.4545 12.7841 14.4545C12.582 14.4545 12.3788 14.5029 12.1946 14.5997L9.30834 16.1102C9.1715 16.1797 9.06195 16.1197 9.0209 16.0892C8.9809 16.0597 8.88937 15.9744 8.91464 15.827L9.4651 12.6313C9.53458 12.2187 9.39879 11.7976 9.09774 11.5071L6.68938 9.1703C6.60517 9.08925 6.61888 8.9966 6.63362 8.94923C6.64941 8.90081 6.69361 8.81875 6.8094 8.80191L10.14 8.3198C10.5547 8.2598 10.9115 8.00084 11.0967 7.62716L12.5398 4.71664C12.6061 4.58086 12.7325 4.56611 12.7831 4.56611C12.8336 4.56611 12.9588 4.58086 13.0252 4.71664L14.4683 7.62613C14.6535 8.00086 15.0115 8.26085 15.4252 8.3198L18.7556 8.80191C18.8714 8.81875 18.9156 8.90186 18.9314 8.94923C18.9472 8.9966 18.9598 9.08927 18.8756 9.16927L16.4672 11.5061C16.1704 11.7987 16.0335 12.2198 16.1062 12.6313ZM5.2631 15.6176C5.2631 15.9081 5.02732 16.1439 4.73679 16.1439H0.52631C0.235787 16.1439 0 15.9081 0 15.6176C0 15.3271 0.235787 15.0913 0.52631 15.0913H4.73679C5.02732 15.0913 5.2631 15.3271 5.2631 15.6176ZM0 10.3545C0 10.064 0.235787 9.82819 0.52631 9.82819H2.63155C2.92207 9.82819 3.15786 10.064 3.15786 10.3545C3.15786 10.645 2.92207 10.8808 2.63155 10.8808H0.52631C0.235787 10.8808 0 10.645 0 10.3545ZM5.2631 5.0914C5.2631 5.38192 5.02732 5.61771 4.73679 5.61771H0.52631C0.235787 5.61771 0 5.38192 0 5.0914C0 4.80087 0.235787 4.56509 0.52631 4.56509H4.73679C5.02732 4.56509 5.2631 4.80087 5.2631 5.0914Z" fill="#00171F"/>
</svg>
