<svg width="20" height="21" viewBox="0 0 20 21" fill="none" xmlns="http://www.w3.org/2000/svg">
<path d="M12.8571 8.92436C12.3048 8.92436 11.9048 8.32436 11.9048 7.49579C11.9048 6.66722 12.3048 6.06722 12.8571 6.06722C13.4095 6.06722 13.8095 6.66722 13.8095 7.49579C13.8095 8.32436 13.4095 8.92436 12.8571 8.92436ZM8.09524 7.49579C8.09524 6.66722 7.69524 6.06722 7.14286 6.06722C6.59048 6.06722 6.19048 6.66722 6.19048 7.49579C6.19048 8.32436 6.59048 8.92436 7.14286 8.92436C7.69524 8.92436 8.09524 8.32436 8.09524 7.49579ZM20 10.3529C20 4.83865 15.5143 0.352936 10 0.352936C4.48571 0.352936 0 4.83865 0 10.3529C0 15.8672 4.48571 20.3529 10 20.3529C15.5143 20.3529 20 15.8672 20 10.3529ZM19.0476 10.3529C19.0476 15.3434 14.9905 19.4006 10 19.4006C5.00952 19.4006 0.952381 15.3434 0.952381 10.3529C0.952381 5.36246 5.00952 1.30532 10 1.30532C14.9905 1.30532 19.0476 5.36246 19.0476 10.3529ZM14.2381 12.8863C14.2762 12.6101 14.2 12.3244 14.0095 12.1148C13.8286 11.9053 13.5714 11.7815 13.2952 11.7815H6.70477C6.42858 11.7815 6.16191 11.9053 5.99048 12.1148C5.80953 12.3244 5.7238 12.6101 5.76189 12.8863C6.06666 14.972 7.89524 16.5434 10 16.5434C12.1048 16.5434 13.9333 14.972 14.2381 12.8863ZM13.2952 12.7529C13.0571 14.372 11.6381 15.591 10 15.591C8.3619 15.591 6.94287 14.372 6.70477 12.7339L13.2952 12.7529Z" fill="#00171F"/>
</svg>
