<svg width="20" height="20" viewBox="0 0 20 20" fill="none" xmlns="http://www.w3.org/2000/svg">
<path d="M16.3158 4.56346H10.5263V4.03715C10.5263 3.45715 10.9979 2.98451 11.5789 2.98451H12.6316C13.7926 2.98451 14.7368 2.0403 14.7368 0.879252C14.7368 0.588725 14.5011 0.352936 14.2105 0.352936C13.92 0.352936 13.6842 0.588725 13.6842 0.879252C13.6842 1.45925 13.2126 1.93188 12.6316 1.93188H11.5789C10.4179 1.93188 9.47368 2.87609 9.47368 4.03715V4.56346H3.68421C1.27368 4.56346 0 5.83715 0 8.24767V15.6161C0 18.0266 1.27368 19.3003 3.68421 19.3003H16.3158C18.7263 19.3003 20 18.0266 20 15.6161V8.24767C20 5.83715 18.7263 4.56346 16.3158 4.56346ZM18.9474 15.6161C18.9474 17.4361 18.1358 18.2477 16.3158 18.2477H3.68421C1.86421 18.2477 1.05263 17.4361 1.05263 15.6161V8.24767C1.05263 6.42767 1.86421 5.61609 3.68421 5.61609H16.3158C18.1358 5.61609 18.9474 6.42767 18.9474 8.24767V15.6161ZM17.1053 9.3003C17.1053 9.59083 16.8695 9.82662 16.5789 9.82662H14.7368C14.4463 9.82662 14.2105 9.59083 14.2105 9.3003C14.2105 9.00978 14.4463 8.77399 14.7368 8.77399H16.5789C16.8695 8.77399 17.1053 9.00978 17.1053 9.3003ZM15.7895 12.4582C15.7895 12.7487 15.5537 12.9845 15.2632 12.9845H13.6842C13.3937 12.9845 13.1579 12.7487 13.1579 12.4582C13.1579 12.1677 13.3937 11.9319 13.6842 11.9319H15.2632C15.5537 11.9319 15.7895 12.1677 15.7895 12.4582ZM10.2632 9.3003C10.2632 8.86452 10.6168 8.51083 11.0526 8.51083C11.4884 8.51083 11.8421 8.86452 11.8421 9.3003C11.8421 9.73609 11.4884 10.0898 11.0526 10.0898C10.6168 10.0898 10.2632 9.73609 10.2632 9.3003ZM6.57895 9.3003C6.57895 8.86452 6.93263 8.51083 7.36842 8.51083C7.80421 8.51083 8.1579 8.86452 8.1579 9.3003C8.1579 9.73609 7.80421 10.0898 7.36842 10.0898C6.93263 10.0898 6.57895 9.73609 6.57895 9.3003ZM4.47368 9.3003C4.47368 9.73609 4.12 10.0898 3.68421 10.0898C3.24842 10.0898 2.89474 9.73609 2.89474 9.3003C2.89474 8.86452 3.24842 8.51083 3.68421 8.51083C4.12 8.51083 4.47368 8.86452 4.47368 9.3003ZM6.31579 13.2477C5.88 13.2477 5.52632 12.894 5.52632 12.4582C5.52632 12.0224 5.88 11.6687 6.31579 11.6687C6.75158 11.6687 7.10526 12.0224 7.10526 12.4582C7.10526 12.894 6.75158 13.2477 6.31579 13.2477ZM9.21053 12.4582C9.21053 12.0224 9.56421 11.6687 10 11.6687C10.4358 11.6687 10.7895 12.0224 10.7895 12.4582C10.7895 12.894 10.4358 13.2477 10 13.2477C9.56421 13.2477 9.21053 12.894 9.21053 12.4582ZM13.6842 15.6161C13.6842 15.9066 13.4484 16.1424 13.1579 16.1424H6.84211C6.55158 16.1424 6.31579 15.9066 6.31579 15.6161C6.31579 15.3256 6.55158 15.0898 6.84211 15.0898H13.1579C13.4484 15.0898 13.6842 15.3256 13.6842 15.6161Z" fill="#00171F"/>
</svg>
