<svg width="20" height="21" viewBox="0 0 20 21" fill="none" xmlns="http://www.w3.org/2000/svg">
<path d="M18.0944 8.00116V3.68611C18.0944 1.50526 16.9421 0.352936 14.7612 0.352936H3.33318C1.15233 0.352936 0 1.50526 0 3.68611V11.3048C0 13.4857 1.15233 14.638 3.33318 14.638H6.66636V17.495H4.76168C4.49884 17.495 4.28552 17.7083 4.28552 17.9712C4.28552 18.234 4.49884 18.4473 4.76168 18.4473H10.5062C10.6519 19.6768 11.4451 20.352 12.7889 20.352H17.6868C19.1782 20.352 20 19.5264 20 18.0265V10.2971C19.999 8.94291 19.3239 8.14401 18.0944 8.00116ZM3.33318 1.30527H14.7612C16.4078 1.30527 17.1421 2.03952 17.1421 3.68611V7.97163H12.7889C11.4451 7.97163 10.6519 8.64684 10.5062 9.8763H0.952337V3.68611C0.952337 2.03952 1.68659 1.30527 3.33318 1.30527ZM0.952337 11.3048V10.8286H10.4757V13.6856H9.99954H7.14253H3.33318C1.68659 13.6856 0.952337 12.9514 0.952337 11.3048ZM7.61869 14.638H9.99954H10.4757V17.495H7.61869V14.638ZM19.0467 18.0265C19.0467 19.0017 18.6525 19.3997 17.6859 19.3997H12.788C11.8213 19.3997 11.4271 19.0017 11.4271 18.0265V10.2971C11.4271 9.32194 11.8213 8.92397 12.788 8.92397H17.6859C18.6525 8.92397 19.0467 9.32194 19.0467 10.2971V18.0265ZM15.9516 17.495C15.9516 17.8893 15.6317 18.2092 15.2374 18.2092C14.8431 18.2092 14.5231 17.8893 14.5231 17.495C14.5231 17.1007 14.8431 16.7807 15.2374 16.7807C15.6317 16.7807 15.9516 17.1007 15.9516 17.495Z" fill="#00171F"/>
</svg>
