<svg width="20" height="20" viewBox="0 0 20 20" fill="none" xmlns="http://www.w3.org/2000/svg">
<path d="M16.3158 3.51083H14.5896L14.0168 1.79285C13.7304 0.931799 12.9273 0.352936 12.0199 0.352936H7.98006C7.07269 0.352936 6.26956 0.931799 5.98324 1.79285L5.41041 3.51083H3.68421C1.27368 3.51083 0 4.78451 0 7.19504V15.6161C0 18.0266 1.27368 19.3003 3.68421 19.3003H16.3158C18.7263 19.3003 20 18.0266 20 15.6161V7.19504C20 4.78451 18.7263 3.51083 16.3158 3.51083ZM18.9474 15.6161C18.9474 17.4361 18.1358 18.2477 16.3158 18.2477H3.68421C1.86421 18.2477 1.05263 17.4361 1.05263 15.6161V7.19504C1.05263 5.37504 1.86421 4.56346 3.68421 4.56346H5.78947C6.01579 4.56346 6.21695 4.41816 6.28958 4.20342L6.98217 2.12565C7.12532 1.69513 7.52743 1.40557 7.98006 1.40557H12.0199C12.4736 1.40557 12.8747 1.69513 13.0178 2.12565L13.7104 4.20342C13.782 4.41816 13.9842 4.56346 14.2105 4.56346H16.3158C18.1358 4.56346 18.9474 5.37504 18.9474 7.19504V15.6161V15.6161ZM10 7.72136C7.96842 7.72136 6.31579 9.37399 6.31579 11.4056C6.31579 13.4371 7.96842 15.0898 10 15.0898C12.0316 15.0898 13.6842 13.4371 13.6842 11.4056C13.6842 9.37399 12.0316 7.72136 10 7.72136ZM10 14.0371C8.54842 14.0371 7.36842 12.8561 7.36842 11.4056C7.36842 9.95504 8.54842 8.77399 10 8.77399C11.4516 8.77399 12.6316 9.95504 12.6316 11.4056C12.6316 12.8561 11.4516 14.0371 10 14.0371ZM16.5789 7.72136C16.5789 8.15715 16.2253 8.51083 15.7895 8.51083C15.3537 8.51083 15 8.15715 15 7.72136C15 7.28557 15.3537 6.93188 15.7895 6.93188C16.2253 6.93188 16.5789 7.28557 16.5789 7.72136Z" fill="#00171F"/>
</svg>
