<svg width="20" height="21" viewBox="0 0 20 21" fill="none" xmlns="http://www.w3.org/2000/svg">
<path id="game-controller" d="M8.42105 12.051C8.42105 12.3415 8.18526 12.5773 7.89474 12.5773H6.31579V14.1562C6.31579 14.4468 6.08 14.6826 5.78947 14.6826C5.49895 14.6826 5.26316 14.4468 5.26316 14.1562V12.5773H3.68421C3.39368 12.5773 3.15789 12.3415 3.15789 12.051C3.15789 11.7605 3.39368 11.5247 3.68421 11.5247H5.26316V9.94572C5.26316 9.65519 5.49895 9.4194 5.78947 9.4194C6.08 9.4194 6.31579 9.65519 6.31579 9.94572V11.5247H7.89474C8.18526 11.5247 8.42105 11.7605 8.42105 12.051ZM20 12.051V16.2615C20 18.5426 18.8463 20.9984 16.3158 20.9984H16.0431C14.7189 20.9984 13.4904 20.3406 12.7557 19.2395C12.7157 19.1785 11.8084 17.8405 10 17.8405C8.17158 17.8405 7.25582 19.213 7.24635 19.2256C6.51056 20.3362 5.27887 20.9984 3.95045 20.9984H3.68421C1.15368 20.9984 0 18.5426 0 16.2615V12.051C0 7.76677 2.16421 5.20888 5.78947 5.20888H9.47368V4.68256C9.47368 3.52151 10.4179 2.5773 11.5789 2.5773H12.6316C13.2126 2.5773 13.6842 2.10467 13.6842 1.52467C13.6842 1.23414 13.92 0.998352 14.2105 0.998352C14.5011 0.998352 14.7368 1.23414 14.7368 1.52467C14.7368 2.68572 13.7926 3.62993 12.6316 3.62993H11.5789C10.9979 3.62993 10.5263 4.10256 10.5263 4.68256V5.20888H14.2105C17.8358 5.20888 20 7.76677 20 12.051ZM18.9474 12.051C18.9474 8.3173 17.2653 6.26151 14.2105 6.26151H5.78947C2.73474 6.26151 1.05263 8.3173 1.05263 12.051V16.2615C1.05263 18.0362 1.87579 19.9457 3.68421 19.9457H3.95045C4.92519 19.9457 5.82852 19.4605 6.36642 18.6489C6.41378 18.5763 7.60737 16.7878 10 16.7878C12.3937 16.7878 13.5854 18.5847 13.6359 18.6615C14.1706 19.4636 15.0715 19.9457 16.0431 19.9457H16.3158C18.1242 19.9457 18.9474 18.0362 18.9474 16.2615V12.051ZM15.5263 9.94572C15.0905 9.94572 14.7368 10.2994 14.7368 10.7352C14.7368 11.171 15.0905 11.5247 15.5263 11.5247C15.9621 11.5247 16.3158 11.171 16.3158 10.7352C16.3158 10.2994 15.9621 9.94572 15.5263 9.94572ZM12.8947 12.5773C12.4589 12.5773 12.1053 12.931 12.1053 13.3668C12.1053 13.8026 12.4589 14.1562 12.8947 14.1562C13.3305 14.1562 13.6842 13.8026 13.6842 13.3668C13.6842 12.931 13.3305 12.5773 12.8947 12.5773Z" fill="#00171F"/>
</svg>
