<svg width="20" height="17" viewBox="0 0 20 17" fill="none" xmlns="http://www.w3.org/2000/svg">
<path d="M19 12.7042H18.5V4.20422C18.5 1.91422 17.29 0.704224 15 0.704224H5C2.71 0.704224 1.5 1.91422 1.5 4.20422V12.7042H1C0.724 12.7042 0.5 12.9282 0.5 13.2042V14.2042C0.5 15.8162 1.388 16.7042 3 16.7042H17C18.612 16.7042 19.5 15.8162 19.5 14.2042V13.2042C19.5 12.9282 19.276 12.7042 19 12.7042ZM2.5 4.20422C2.5 2.47522 3.271 1.70422 5 1.70422H15C16.729 1.70422 17.5 2.47522 17.5 4.20422V12.7042H2.5V4.20422ZM18.5 14.2042C18.5 15.2552 18.052 15.7042 17 15.7042H3C1.948 15.7042 1.5 15.2552 1.5 14.2042V13.7042H18.5V14.2042Z" fill="#00171F"/>
</svg>
