<svg width="16" height="20" viewBox="0 0 16 20" fill="none" xmlns="http://www.w3.org/2000/svg">
<path d="M12 0.704224H4C1.71 0.704224 0.5 1.91422 0.5 4.20422V16.2042C0.5 18.4942 1.71 19.7042 4 19.7042H12C14.29 19.7042 15.5 18.4942 15.5 16.2042V4.20422C15.5 1.91422 14.29 0.704224 12 0.704224ZM14.5 16.2042C14.5 17.9332 13.729 18.7042 12 18.7042H4C2.271 18.7042 1.5 17.9332 1.5 16.2042V4.20422C1.5 2.47522 2.271 1.70422 4 1.70422H12C13.729 1.70422 14.5 2.47522 14.5 4.20422V16.2042ZM10 4.20422C10 4.48022 9.776 4.70422 9.5 4.70422H6.5C6.224 4.70422 6 4.48022 6 4.20422C6 3.92822 6.224 3.70422 6.5 3.70422H9.5C9.776 3.70422 10 3.92822 10 4.20422ZM8.75 16.2042C8.75 16.6182 8.414 16.9542 8 16.9542C7.586 16.9542 7.25 16.6182 7.25 16.2042C7.25 15.7902 7.586 15.4542 8 15.4542C8.414 15.4542 8.75 15.7902 8.75 16.2042Z" fill="#00171F"/>
</svg>
