<svg width="18" height="18" viewBox="0 0 18 18" fill="none" xmlns="http://www.w3.org/2000/svg">
<path d="M17.3541 1.53864L1.35414 17.5386C1.25614 17.6366 1.12813 17.6846 1.00013 17.6846C0.872132 17.6846 0.744128 17.6356 0.646128 17.5386C0.451128 17.3436 0.451128 17.0266 0.646128 16.8316L16.6461 0.831604C16.8411 0.636604 17.1581 0.636604 17.3531 0.831604C17.5481 1.0266 17.5491 1.34264 17.3541 1.53864ZM17.5001 14.6846C17.5001 16.3386 16.1541 17.6846 14.5001 17.6846C12.8461 17.6846 11.5001 16.3386 11.5001 14.6846C11.5001 13.0306 12.8461 11.6846 14.5001 11.6846C16.1541 11.6846 17.5001 13.0306 17.5001 14.6846ZM16.5001 14.6846C16.5001 13.5816 15.6031 12.6846 14.5001 12.6846C13.3971 12.6846 12.5001 13.5816 12.5001 14.6846C12.5001 15.7876 13.3971 16.6846 14.5001 16.6846C15.6031 16.6846 16.5001 15.7876 16.5001 14.6846ZM0.500132 3.68463C0.500132 2.03063 1.84613 0.684631 3.50013 0.684631C5.15413 0.684631 6.50013 2.03063 6.50013 3.68463C6.50013 5.33863 5.15413 6.68463 3.50013 6.68463C1.84613 6.68463 0.500132 5.33863 0.500132 3.68463ZM1.50013 3.68463C1.50013 4.78763 2.39713 5.68463 3.50013 5.68463C4.60313 5.68463 5.50013 4.78763 5.50013 3.68463C5.50013 2.58163 4.60313 1.68463 3.50013 1.68463C2.39713 1.68463 1.50013 2.58163 1.50013 3.68463Z" fill="#00171F"/>
</svg>
