<svg width="20" height="21" viewBox="0 0 20 21" fill="none" xmlns="http://www.w3.org/2000/svg">
<path d="M12.8072 9.65159C12.8072 9.94212 12.5557 10.1779 12.2458 10.1779H7.75454C7.44465 10.1779 7.19314 9.94212 7.19314 9.65159C7.19314 9.36107 7.44465 9.12528 7.75454 9.12528H12.2458C12.5557 9.12528 12.8072 9.36107 12.8072 9.65159ZM18.4212 6.23054V10.0127C18.4212 11.259 17.8821 12.4799 16.9412 13.362L13.1361 16.9296C12.9262 17.1253 12.8072 17.397 12.8072 17.6738V20.1779C12.8072 20.4684 12.5557 20.7042 12.2458 20.7042H7.75454C7.44465 20.7042 7.19314 20.4684 7.19314 20.1779V17.6738C7.19314 17.397 7.07415 17.1253 6.86419 16.9296L3.05909 13.362C2.11818 12.4799 1.5791 11.259 1.5791 10.0127V6.23054C1.5791 5.50528 2.209 4.91475 2.98261 4.91475H5.50893V1.23054C5.50893 0.940013 5.76043 0.704224 6.07033 0.704224C6.38022 0.704224 6.63173 0.940013 6.63173 1.23054V4.91475H13.3686V1.23054C13.3686 0.940013 13.6201 0.704224 13.93 0.704224C14.2399 0.704224 14.4914 0.940013 14.4914 1.23054V4.91475H17.0177C17.7913 4.91475 18.4212 5.50528 18.4212 6.23054ZM17.2984 6.23054C17.2984 6.08528 17.1726 5.96738 17.0177 5.96738H2.98261C2.82766 5.96738 2.70191 6.08528 2.70191 6.23054V10.0127C2.70191 10.9821 3.12173 11.9317 3.85268 12.618L7.65805 16.1853C8.07573 16.5769 8.31594 17.1201 8.31594 17.6738V19.6516H11.6844V17.6738C11.6844 17.1201 11.9246 16.5769 12.3423 16.1853L16.1476 12.618C16.8786 11.9317 17.2984 10.9821 17.2984 10.0127V6.23054Z" fill="#00171F"/>
</svg>
