<svg width="19" height="21" viewBox="0 0 19 21" fill="none" xmlns="http://www.w3.org/2000/svg">
<path d="M18.958 15.6459C18.854 15.3209 18.5771 15.0889 18.2361 15.0399L16.5481 14.7999L15.8191 13.3549C15.5071 12.7339 14.491 12.7339 14.178 13.3549L13.449 14.7999L11.761 15.0399C11.42 15.0889 11.1441 15.3209 11.0391 15.6459C10.9351 15.9689 11.024 16.314 11.27 16.549L12.4839 17.7069L12.208 19.2859C12.148 19.6269 12.285 19.9659 12.564 20.1719C12.848 20.3799 13.22 20.4109 13.533 20.2489L14.949 19.4719L16.4619 20.2499C16.5959 20.3189 16.741 20.3529 16.885 20.3529C17.077 20.3529 17.2679 20.2919 17.4309 20.1729C17.7099 19.9669 17.8459 19.6279 17.7859 19.2879L17.51 17.7069L18.7251 16.549C18.9731 16.315 19.062 15.9689 18.958 15.6459ZM16.7749 17.0289C16.5629 17.2319 16.4651 17.5259 16.5161 17.8149L16.7729 19.2839L15.4089 18.5819C15.2809 18.5159 15.14 18.4829 15 18.4829C14.86 18.4829 14.7191 18.5159 14.5911 18.5819L13.2271 19.2829L13.4851 17.8129C13.5351 17.5239 13.4371 17.2309 13.2241 17.0269L12.1431 15.9959L13.6479 15.7819C13.9349 15.7409 14.1851 15.5629 14.3181 15.3029L14.9771 13.9019L15.6841 15.3049C15.8161 15.5619 16.066 15.7409 16.353 15.7819L17.8579 15.9959L16.7749 17.0289ZM8.5 18.3529H3.5C1.771 18.3529 1 17.5819 1 15.8529V3.85294C1 2.12394 1.771 1.35294 3.5 1.35294H9V3.85294C9 6.14294 10.21 7.35294 12.5 7.35294H15V9.85294C15 10.1289 15.224 10.3529 15.5 10.3529C15.776 10.3529 16 10.1289 16 9.85294V6.85294C16 6.71994 15.947 6.59293 15.854 6.49893L9.854 0.498932C9.76 0.404932 9.633 0.352936 9.5 0.352936H3.5C1.21 0.352936 0 1.56294 0 3.85294V15.8529C0 18.1429 1.21 19.3529 3.5 19.3529H8.5C8.776 19.3529 9 19.1289 9 18.8529C9 18.5769 8.776 18.3529 8.5 18.3529ZM10 3.85294V2.05994L14.293 6.35294H12.5C10.771 6.35294 10 5.58194 10 3.85294ZM11.5 9.35294C11.776 9.35294 12 9.57694 12 9.85294C12 10.1289 11.776 10.3529 11.5 10.3529H4.5C4.224 10.3529 4 10.1289 4 9.85294C4 9.57694 4.224 9.35294 4.5 9.35294H11.5ZM9 13.8529C9 14.1289 8.776 14.3529 8.5 14.3529H4.5C4.224 14.3529 4 14.1289 4 13.8529C4 13.5769 4.224 13.3529 4.5 13.3529H8.5C8.776 13.3529 9 13.5769 9 13.8529Z" fill="#00171F"/>
</svg>
