<svg width="20" height="21" viewBox="0 0 20 21" fill="none" xmlns="http://www.w3.org/2000/svg">
<path d="M10.0004 0.351318C4.48792 0.351318 0.00276642 4.83645 0.00276642 10.3499C0.00276642 11.7857 0.321885 13.2309 0.927127 14.534C1.0787 14.8497 1.09011 15.2434 0.966959 15.6339L0.0816596 18.2665C-0.10886 18.837 0.0397778 19.457 0.467131 19.8843C0.770278 20.1885 1.17215 20.3506 1.58371 20.3506C1.75108 20.3506 1.91954 20.3232 2.08585 20.2685L4.71014 19.3875C5.10697 19.2601 5.50052 19.2728 5.82262 19.4264C7.12046 20.0296 8.56564 20.3485 10.0014 20.3485C15.5138 20.3485 20 15.8634 20 10.3499C20 4.83645 15.5128 0.351318 10.0004 0.351318ZM10.0004 19.2959C8.71724 19.2959 7.4268 19.0106 6.27105 18.4738C5.71212 18.2075 5.0438 18.1749 4.38172 18.3864L1.75127 19.2696C1.55654 19.3328 1.35635 19.2843 1.21109 19.1391C1.06478 18.9938 1.01531 18.7906 1.07952 18.6001L1.96687 15.9613C2.17423 15.3066 2.14267 14.6392 1.87847 14.0855C1.33954 12.9245 1.05536 11.633 1.05536 10.3499C1.05536 5.41748 5.0679 1.40391 10.0004 1.40391C14.9339 1.40391 18.9464 5.41643 18.9464 10.3499C18.9464 15.2834 14.9339 19.2959 10.0004 19.2959ZM14.1213 8.4468L11.9131 8.14157L10.9489 6.20162C10.5889 5.47638 9.40766 5.47743 9.04978 6.20162L8.10563 8.12576L5.87735 8.4468C5.48789 8.50259 5.17013 8.76997 5.05013 9.14469C4.92908 9.51731 5.02887 9.91837 5.31097 10.191L6.91196 11.7193L6.54473 13.8487C6.47526 14.2466 6.63525 14.6424 6.96156 14.8813C7.28996 15.1213 7.71838 15.1539 8.07942 14.9645L9.98674 13.9572L11.9192 14.9655C12.075 15.0466 12.2445 15.0866 12.4119 15.0866C12.6308 15.0866 12.8498 15.0182 13.0361 14.8824C13.3634 14.6445 13.5234 14.2487 13.4539 13.8509L13.0772 11.7478L14.6877 10.1899C14.9698 9.91728 15.0696 9.51628 14.9485 9.14367C14.8285 8.77105 14.5108 8.50364 14.1213 8.4468ZM12.3456 10.9909C12.1024 11.2256 11.9909 11.5646 12.0488 11.8993L12.4067 14.0329L10.474 13.0245C10.3245 12.9477 10.1625 12.9088 9.99933 12.9088C9.83618 12.9088 9.6731 12.9477 9.52468 13.0245L7.58268 14.0287L7.95093 11.8982C8.00777 11.5646 7.89622 11.2256 7.65412 10.9909L6.02794 9.48783L8.25623 9.16679C8.58779 9.11943 8.87719 8.91102 9.02665 8.60998L10.0034 6.66586C10.0034 6.66586 10.0047 6.6669 10.0058 6.669H10.0068L10.972 8.60998C11.1225 8.90997 11.4109 9.1184 11.7424 9.16577L13.9561 9.43206L12.3456 10.9909Z" fill="#00171F"/>
</svg>
