<svg width="18" height="21" viewBox="0 0 18 21" fill="none" xmlns="http://www.w3.org/2000/svg">
<path d="M14.2105 0.352936H3.68421C1.27368 0.352936 0 1.62662 0 4.03715V16.6687C0 19.0793 1.27368 20.3529 3.68421 20.3529H14.2105C16.6211 20.3529 17.8947 19.0793 17.8947 16.6687V4.03715C17.8947 1.62662 16.6211 0.352936 14.2105 0.352936ZM16.8421 16.6687C16.8421 18.4887 16.0305 19.3003 14.2105 19.3003H3.68421C1.86421 19.3003 1.05263 18.4887 1.05263 16.6687V4.03715C1.05263 2.21715 1.86421 1.40557 3.68421 1.40557H14.2105C16.0305 1.40557 16.8421 2.21715 16.8421 4.03715V16.6687ZM12.1053 3.51083H5.78947C4.45158 3.51083 3.68421 4.2782 3.68421 5.61609V6.66873C3.68421 8.00662 4.45158 8.77399 5.78947 8.77399H12.1053C13.4432 8.77399 14.2105 8.00662 14.2105 6.66873V5.61609C14.2105 4.2782 13.4432 3.51083 12.1053 3.51083ZM13.1579 6.66873C13.1579 7.42662 12.8632 7.72136 12.1053 7.72136H5.78947C5.03158 7.72136 4.73684 7.42662 4.73684 6.66873V5.61609C4.73684 4.8582 5.03158 4.56346 5.78947 4.56346H12.1053C12.8632 4.56346 13.1579 4.8582 13.1579 5.61609V6.66873ZM13.9474 12.4603C13.9474 12.896 13.5937 13.2497 13.1579 13.2497C12.7221 13.2497 12.3684 12.896 12.3684 12.4603C12.3684 12.0245 12.7221 11.6708 13.1579 11.6708C13.5937 11.6708 13.9474 12.0234 13.9474 12.4603ZM9.73684 12.4603C9.73684 12.896 9.38316 13.2497 8.94737 13.2497C8.51158 13.2497 8.1579 12.896 8.1579 12.4603C8.1579 12.0245 8.51158 11.6708 8.94737 11.6708C9.38316 11.6708 9.73684 12.0234 9.73684 12.4603ZM5.52632 12.4603C5.52632 12.896 5.17263 13.2497 4.73684 13.2497C4.30105 13.2497 3.94737 12.896 3.94737 12.4603C3.94737 12.0245 4.30105 11.6708 4.73684 11.6708C5.17263 11.6708 5.52632 12.0234 5.52632 12.4603ZM13.9474 15.6161C13.9474 16.0519 13.5937 16.4056 13.1579 16.4056C12.7221 16.4056 12.3684 16.0519 12.3684 15.6161C12.3684 15.1803 12.7221 14.8266 13.1579 14.8266C13.5937 14.8266 13.9474 15.1803 13.9474 15.6161ZM9.73684 15.6161C9.73684 16.0519 9.38316 16.4056 8.94737 16.4056C8.51158 16.4056 8.1579 16.0519 8.1579 15.6161C8.1579 15.1803 8.51158 14.8266 8.94737 14.8266C9.38316 14.8266 9.73684 15.1803 9.73684 15.6161ZM5.52632 15.6161C5.52632 16.0519 5.17263 16.4056 4.73684 16.4056C4.30105 16.4056 3.94737 16.0519 3.94737 15.6161C3.94737 15.1803 4.30105 14.8266 4.73684 14.8266C5.17263 14.8266 5.52632 15.1803 5.52632 15.6161Z" fill="#00171F"/>
</svg>
