<svg width="20" height="21" viewBox="0 0 20 21" fill="none" xmlns="http://www.w3.org/2000/svg">
<path d="M16.3158 0.684631H3.68421C2.00316 0.684631 0 1.40347 0 4.83014V13.2058C0 16.6313 2.00316 17.3513 3.68421 17.3513H16.3158C17.9968 17.3513 20 16.6325 20 13.2058V4.83014C20 1.40347 17.9968 0.684631 16.3158 0.684631ZM18.9474 13.2058C18.9474 15.3047 18.1358 16.2402 16.3158 16.2402H3.68421C1.86421 16.2402 1.05263 15.3047 1.05263 13.2058V4.83014C1.05263 2.73125 1.86421 1.79574 3.68421 1.79574H16.3158C18.1358 1.79574 18.9474 2.73125 18.9474 4.83014V13.2058ZM15.7895 20.1291C15.7895 20.4357 15.5537 20.6846 15.2632 20.6846H4.73684C4.44632 20.6846 4.21053 20.4357 4.21053 20.1291C4.21053 19.8224 4.44632 19.5735 4.73684 19.5735H15.2632C15.5537 19.5735 15.7895 19.8224 15.7895 20.1291Z" fill="#00171F"/>
</svg>
