<svg width="20" height="21" viewBox="0 0 20 21" fill="none" xmlns="http://www.w3.org/2000/svg">
<path d="M19.2308 18.9921H18.9744V17.7101C18.9744 16.6024 18.2862 15.9152 17.1795 15.9152H16.9231V10.2742H17.1795C18.2862 10.2742 18.9744 9.58701 18.9744 8.47932V5.85462C18.9744 5.17052 18.5938 4.55519 17.9815 4.24955L11.0318 0.774742C10.3846 0.45269 9.61335 0.45269 8.96822 0.774742L2.01848 4.24955C1.40617 4.55519 1.02564 5.17052 1.02564 5.85462V8.47932C1.02564 9.58701 1.71385 10.2742 2.82051 10.2742H3.07692V15.9152H2.82051C1.71385 15.9152 1.02564 16.6024 1.02564 17.7101V18.9921H0.769231C0.344615 18.9921 0 19.3368 0 19.7614C0 20.186 0.344615 20.5306 0.769231 20.5306H19.2308C19.6554 20.5306 20 20.186 20 19.7614C20 19.3368 19.6554 18.9921 19.2308 18.9921ZM15.3846 15.9152H12.8205V10.2742H15.3846V15.9152ZM8.71795 15.9152V10.2742H11.2821V15.9152H8.71795ZM2.59903 8.70794C2.59801 8.70794 2.59801 8.70794 2.59903 8.70794C2.59391 8.69973 2.5641 8.63932 2.5641 8.47932V5.85462C2.5641 5.75718 2.6184 5.6691 2.70558 5.625L9.65532 2.15019C9.87379 2.04147 10.1262 2.04147 10.3447 2.15019L17.2944 5.625C17.3816 5.66808 17.4359 5.75616 17.4359 5.85462V8.47932C17.4359 8.63932 17.4062 8.69885 17.4082 8.70193C17.4 8.70603 17.3395 8.73573 17.1795 8.73573H2.82051C2.66564 8.73573 2.60416 8.70794 2.59903 8.70794ZM4.61538 10.2742H7.17949V15.9152H4.61538V10.2742ZM2.5641 17.7101C2.5641 17.5501 2.59382 17.4906 2.59177 17.4875C2.59998 17.4834 2.66051 17.4537 2.82051 17.4537H17.1795C17.3662 17.4537 17.4031 17.4815 17.4021 17.4815C17.4062 17.4907 17.4359 17.5501 17.4359 17.7101V18.9921H2.5641V17.7101ZM8.71795 5.4024C8.71795 4.6947 9.29231 4.12034 10 4.12034C10.7077 4.12034 11.2821 4.6947 11.2821 5.4024C11.2821 6.11009 10.7077 6.68445 10 6.68445C9.29231 6.68445 8.71795 6.11009 8.71795 5.4024Z" fill="#00A8E8"/>
</svg>
