<svg width="20" height="17" viewBox="0 0 20 17" fill="none" xmlns="http://www.w3.org/2000/svg">
<path d="M16.1538 0.583252H3.84615C1.3641 0.583252 0 1.94735 0 4.42941V12.6345C0 15.1166 1.3641 16.4807 3.84615 16.4807H16.1538C18.6359 16.4807 20 15.1166 20 12.6345V4.42941C20 1.94735 18.6359 0.583252 16.1538 0.583252ZM18.4615 12.6345C18.4615 14.255 17.7744 14.9422 16.1538 14.9422H3.84615C2.22564 14.9422 1.53846 14.255 1.53846 12.6345V4.42941C1.53846 2.80889 2.22564 2.12171 3.84615 2.12171H16.1538C17.7744 2.12171 18.4615 2.80889 18.4615 4.42941V12.6345ZM6.67693 9.06529C6.67693 9.06529 6.57436 9.40378 6.34872 9.73198C6.15385 10.0192 5.9487 10.3063 5.62049 10.3166C5.30254 10.3166 5.19997 10.132 4.841 10.132C4.48202 10.132 4.3692 10.3166 4.07177 10.3268C3.75382 10.3371 3.51794 10.0192 3.32307 9.72172C2.91281 9.1371 2.60514 8.06017 3.02565 7.34222C3.23078 6.98325 3.60003 6.75762 4.00003 6.74736C4.30772 6.74736 4.59484 6.95247 4.77946 6.95247C4.96408 6.95247 5.30255 6.70632 5.6923 6.72683C5.84614 6.73709 6.27695 6.77814 6.56413 7.19865C6.54362 7.21916 6.04105 7.50632 6.05131 8.10119C6.05131 8.81914 6.67694 9.05504 6.6872 9.06529H6.67693ZM5.44615 6.33708C5.28205 6.53196 5.00512 6.69608 4.73846 6.67556C4.70769 6.4089 4.84102 6.12173 4.99487 5.94737C5.15897 5.74224 5.4564 5.59864 5.6923 5.58839C5.72306 5.86531 5.61025 6.14222 5.44615 6.34735V6.33708ZM16.4923 7.10631H17.1795L15.9898 10.4499C15.7128 11.2191 15.4051 11.4653 14.7487 11.4653C14.6974 11.4653 14.5333 11.4653 14.4923 11.4448V10.9217C14.4923 10.9217 14.6359 10.932 14.6872 10.932C14.9846 10.932 15.159 10.8089 15.2615 10.4807L15.3231 10.2858L14.1744 7.10631H14.8821L15.682 9.69095H15.6923L16.4923 7.10631V7.10631ZM9.57952 5.90633H7.93845V10.2756H8.61541V8.77811H9.55898C10.4205 8.77811 11.0154 8.19349 11.0154 7.33196C11.0154 6.47042 10.4205 5.89607 9.57952 5.89607V5.90633ZM9.39484 8.21402H8.61541V6.48069H9.39484C9.97946 6.48069 10.3179 6.79864 10.3179 7.35249C10.3179 7.90634 9.97951 8.22429 9.38464 8.22429L9.39484 8.21402ZM12.6154 7.06531C11.8974 7.06531 11.3641 7.47555 11.3436 8.03965H11.9589C12.0102 7.77298 12.2564 7.59863 12.6051 7.59863C13.0154 7.59863 13.2513 7.79351 13.2513 8.15249V8.39863L12.4 8.44993C11.6103 8.50121 11.1897 8.81914 11.1897 9.38324C11.1897 9.94734 11.6308 10.3268 12.2564 10.3268C12.6872 10.3268 13.0769 10.1114 13.2615 9.77299H13.2718V10.2961H13.8974V8.12172C13.8974 7.48582 13.3949 7.08581 12.6154 7.08581V7.06531ZM13.241 9.09606C13.241 9.50632 12.8923 9.79352 12.4308 9.79352C12.0718 9.79352 11.8359 9.61914 11.8359 9.35247C11.8359 9.0858 12.0615 8.92172 12.482 8.89095L13.241 8.83965V9.08583V9.09606Z" fill="#00A8E8"/>
</svg>
