<svg width="20" height="21" viewBox="0 0 20 21" fill="none" xmlns="http://www.w3.org/2000/svg">
<path d="M16.9231 4.68275V4.37814C16.9231 1.89814 15.5569 0.531982 13.0769 0.531982H2.82051C1.26462 0.531982 0 1.7966 0 3.3525V16.6858C0 19.1658 1.36615 20.532 3.84615 20.532H16.1538C18.6338 20.532 20 19.1658 20 16.6858V8.4807C20 6.27044 18.9149 4.94531 16.9231 4.68275ZM18.4615 14.3781H14.6154C13.6256 14.3781 12.8205 13.573 12.8205 12.5833C12.8205 11.5935 13.6256 10.7884 14.6154 10.7884H18.4615V14.3781ZM2.82051 2.07044H13.0769C14.6944 2.07044 15.3846 2.7607 15.3846 4.37814V4.63455H2.82051C2.11385 4.63455 1.53846 4.05916 1.53846 3.3525C1.53846 2.64583 2.11385 2.07044 2.82051 2.07044ZM16.1538 18.9935H3.84615C2.22872 18.9935 1.53846 18.3033 1.53846 16.6858V5.86426C1.92308 6.06119 2.35897 6.17301 2.82051 6.17301H16.1538C17.7713 6.17301 18.4615 6.86326 18.4615 8.4807V9.24993H14.6154C12.7774 9.24993 11.2821 10.7453 11.2821 12.5833C11.2821 14.4212 12.7774 15.9166 14.6154 15.9166H18.4615V16.6858C18.4615 18.3033 17.7713 18.9935 16.1538 18.9935ZM15.1385 11.5576H15.1487C15.7159 11.5576 16.1744 12.0171 16.1744 12.5833C16.1744 13.1494 15.7159 13.6089 15.1487 13.6089C14.5826 13.6089 14.118 13.1494 14.118 12.5833C14.118 12.0171 14.5723 11.5576 15.1385 11.5576Z" fill="#00A8E8"/>
</svg>
