<svg xmlns="http://www.w3.org/2000/svg" width="50" height="50" viewBox="0 0 50 50" fill="none">
                                <g clip-path="url(#clip0_645_1114)">
                                    <path d="M21.4145 42.8313C21.2951 42.982 21.2314 43.1478 21.224 43.3265C21.2384 43.1559 21.3028 42.9916 21.4145 42.8508L26.1071 36.9988L26.1774 36.9738L26.1071 36.9896L21.4145 42.8313Z" fill="#94D5D2"></path>
                                    <path d="M26.9887 36.8322L27.0488 36.8381L27.103 36.9144C27.1026 36.9137 27.1055 36.9126 27.1044 36.9122L27.0779 36.8293L27.0031 36.8146C26.9972 36.8123 26.9913 36.7928 26.9858 36.7913L26.9718 36.7372L26.9788 36.7913C26.9847 36.7928 26.9832 36.83 26.9887 36.8322Z" fill="#94D5D2"></path>
                                    <path d="M21.5527 39.9687C21.5527 39.9672 21.5527 39.9653 21.5527 39.9639C21.5527 40.8599 21.1702 41.7087 20.5056 42.3096C21.1714 41.708 21.5527 40.8665 21.5527 39.9687Z" fill="#94D5D2"></path>
                                    <path d="M15.8676 39.1935C15.707 39.0086 15.6337 38.7812 15.6451 38.5598C15.6337 38.7816 15.7066 39.0093 15.8676 39.1935Z" fill="#94D5D2"></path>
                                    <path d="M27.5388 37.4059C27.5403 37.4085 27.5369 37.411 27.538 37.4133C27.5369 37.4029 27.5263 37.3967 27.5259 37.3956L27.5174 37.425C27.5388 37.4777 27.5042 37.519 27.5042 37.5591C27.5042 37.519 27.5734 37.4777 27.552 37.425L27.5432 37.3956C27.5436 37.3967 27.5454 37.4033 27.5469 37.4133C27.5458 37.411 27.5443 37.4085 27.5432 37.4059L27.531 37.3514C27.5263 37.334 27.5193 37.3189 27.5126 37.3038C27.5185 37.3193 27.5248 37.3344 27.5296 37.3514L27.5388 37.4059Z" fill="#94D5D2"></path>
                                    <path d="M29.5668 45.8957C29.5738 45.8957 29.5801 45.8939 29.5871 45.8939C29.222 45.8832 28.9825 45.6242 28.8694 45.2536C28.8539 45.1917 28.9214 45.1117 28.9214 45.0251C28.9214 45.1117 28.8263 45.1917 28.8418 45.2536C28.9567 45.6316 29.1888 45.8957 29.5668 45.8957Z" fill="#94D5D2"></path>
                                    <path d="M25 2.21057C12.5352 2.21057 2.39478 12.351 2.39478 24.8158C2.39478 30.2629 4.33157 35.2661 7.55268 39.1732V34.4176C5.97841 31.5679 5.0791 28.2956 5.0791 24.8158C5.0791 13.8313 14.0155 4.89489 25 4.89489C35.9845 4.89489 44.921 13.8313 44.921 24.8158C44.921 28.4835 43.9207 31.9201 42.1843 34.8745V39.4779C45.5602 35.5273 47.6053 30.4074 47.6053 24.8158C47.6053 12.351 37.4645 2.21057 25 2.21057Z" fill="#FFEB97"></path>
                                    <path d="M25 0C11.3164 0 0.184204 11.1322 0.184204 24.8158C0.184204 31.7031 3.00632 37.9419 7.55264 42.4426V50H42.1843V42.6935C46.8828 38.1755 49.8158 31.8335 49.8158 24.8162C49.8158 11.1322 38.6835 0 25 0ZM39.9738 47.7895H9.76317V34.8947H39.9738V47.7895ZM40.8602 32.6842H9.1398C7.9579 30.3119 7.28959 27.6412 7.28959 24.8158C7.28959 15.0504 15.2346 7.10538 25 7.10538C34.7654 7.10538 42.7104 15.05 42.7104 24.8158C42.7104 27.6408 42.0417 30.3119 40.8602 32.6842ZM42.1843 39.4779V34.8744C43.9203 31.9197 44.9209 28.4831 44.9209 24.8158C44.9209 13.8313 35.9845 4.89485 25 4.89485C14.0155 4.89485 5.07906 13.8313 5.07906 24.8158C5.07906 28.2955 5.97801 31.5679 7.55264 34.4176V39.1732C4.33153 35.2661 2.39474 30.2629 2.39474 24.8158C2.39474 12.351 12.5352 2.21053 25 2.21053C37.4648 2.21053 47.6053 12.351 47.6053 24.8158C47.6053 30.4073 45.5601 35.5273 42.1843 39.4779Z" fill="#586065"></path>
                                    <path d="M25 7.10535C15.2346 7.10535 7.28955 15.05 7.28955 24.8158C7.28955 27.6408 7.95787 30.3119 9.13977 32.6841H40.8601C42.0417 30.3119 42.7104 27.6412 42.7104 24.8158C42.7104 15.0504 34.7653 7.10535 25 7.10535ZM35.8378 16.0444L28.084 23.6062C28.2318 23.9813 28.3158 24.3884 28.3158 24.8158C28.3158 26.6439 26.8281 28.1315 25 28.1315C23.1718 28.1315 21.6842 26.6439 21.6842 24.8158C21.6842 24.3729 21.773 23.9511 21.931 23.5642L17.0914 18.7243C16.6596 18.2928 16.6596 17.5928 17.0914 17.1614C17.5228 16.7296 18.2228 16.7296 18.6543 17.1614L23.404 21.9111C23.8777 21.6499 24.4215 21.5 25 21.5C25.5939 21.5 26.1505 21.6591 26.6332 21.9336L34.2945 14.4616C34.7318 14.0357 35.4311 14.0446 35.8577 14.4812C36.2836 14.9185 36.2748 15.6181 35.8378 16.0444Z" fill="white"></path>
                                    <path d="M34.2945 14.4617L26.6332 21.9337C26.1505 21.6592 25.5939 21.5 25 21.5C24.4215 21.5 23.8778 21.6496 23.404 21.9112L18.6543 17.1615C18.2228 16.7297 17.5228 16.7297 17.0914 17.1615C16.6596 17.5929 16.6596 18.2929 17.0914 18.7243L21.931 23.5643C21.773 23.9508 21.6842 24.373 21.6842 24.8158C21.6842 26.6439 23.1719 28.1316 25 28.1316C26.8281 28.1316 28.3158 26.6439 28.3158 24.8158C28.3158 24.3888 28.2318 23.9817 28.084 23.6063L35.8378 16.0444C36.2748 15.6182 36.2836 14.9185 35.8574 14.4812C35.4311 14.0446 34.7318 14.0358 34.2945 14.4617ZM25 25.9211C24.3906 25.9211 23.8947 25.4252 23.8947 24.8158C23.8947 24.2065 24.3906 23.7106 25 23.7106C25.6093 23.7106 26.1052 24.2065 26.1052 24.8158C26.1052 25.4252 25.6093 25.9211 25 25.9211Z" fill="#586065"></path>
                                    <path d="M25 25.9211C25.6105 25.9211 26.1053 25.4263 26.1053 24.8158C26.1053 24.2054 25.6105 23.7106 25 23.7106C24.3896 23.7106 23.8948 24.2054 23.8948 24.8158C23.8948 25.4263 24.3896 25.9211 25 25.9211Z" fill="#94D5D2"></path>
                                    <path d="M9.76318 47.7894H39.9738V34.8947H9.76318V47.7894ZM28.9211 45.0251V37.6589C28.9211 37.1789 29.1716 36.7883 29.6517 36.7883C30.1472 36.7883 30.3948 37.1708 30.3948 37.6589V39.5382C30.7632 39.3699 31.167 39.2851 31.5439 39.2851C33.1465 39.2851 34.4474 40.5941 34.4474 42.2034V45.0251C34.4474 45.5137 34.1991 45.8961 33.7106 45.8961C33.2221 45.8961 32.9738 45.5137 32.9738 45.0251V42.2034C32.9738 41.5723 32.3187 41.0499 31.6751 41.0392C31.0447 41.0499 30.3948 41.5627 30.3948 42.2067V45.0251C30.3948 45.5137 30.1049 45.8961 29.6093 45.8961C29.6016 45.8961 29.5946 45.8943 29.5869 45.8943C29.5799 45.8943 29.5736 45.8961 29.5666 45.8961C29.1886 45.8961 28.9565 45.6319 28.8412 45.2536C28.8261 45.1917 28.9211 45.1114 28.9211 45.0251ZM26.1826 36.9714C26.1867 36.9648 26.2058 36.9493 26.2254 36.9361L26.2711 36.904C26.2862 36.8959 26.3042 36.8823 26.3271 36.8742C26.3562 36.8491 26.3871 36.8285 26.4151 36.8211C26.4376 36.8116 26.4579 36.7939 26.4733 36.7902L26.5264 36.7368H26.858H26.8966H26.9722L26.9862 36.7909C26.9917 36.7928 26.9976 36.8123 27.0035 36.8141L27.0783 36.8289L27.1048 36.9118C27.1059 36.9121 27.103 36.9132 27.1033 36.914L27.1048 36.9162C27.1173 36.9232 27.079 36.9302 27.079 36.9372V36.9383C27.079 36.9446 27.1704 36.9534 27.1844 36.9637C27.2175 36.9807 27.3063 37.0057 27.3273 37.037L27.3365 37.0466C27.3704 37.0805 27.3848 37.1 27.3984 37.1203C27.4132 37.1358 27.4338 37.1579 27.4666 37.2072L27.5023 37.2765C27.5075 37.2868 27.509 37.2949 27.5119 37.3038C27.5185 37.3192 27.5255 37.3343 27.5303 37.3513L27.5425 37.4058C27.5436 37.4084 27.5451 37.411 27.5462 37.4132C27.5451 37.4029 27.5429 37.3966 27.5425 37.3955L27.5513 37.425C27.5727 37.4777 27.5034 37.5189 27.5034 37.5591C27.5064 37.5469 27.4471 37.5793 27.4471 37.6217V42.5206C28.1839 42.5508 28.2709 42.9288 28.2709 43.3894C28.2709 43.858 28.1839 44.229 27.4471 44.2585V45.0251C27.4471 45.5137 27.1987 45.8961 26.7102 45.8961C26.2217 45.8961 25.9734 45.5137 25.9734 45.0251V44.1052H22.1208C21.8773 44.1052 21.6931 44.1163 21.5479 43.9855C21.3744 43.8547 21.2561 43.7298 21.2277 43.5039C21.22 43.4443 21.2196 43.3849 21.2244 43.3264C21.2318 43.148 21.2955 42.9819 21.4149 42.8312L26.1075 36.9891L26.1779 36.9733L26.1826 36.9714ZM19.5109 39.0044C19.2442 38.7067 18.8673 38.5424 18.4509 38.5424C18.0969 38.5424 17.7546 38.6725 17.4864 38.9086L17.101 39.2568C16.7562 39.5718 16.1866 39.5438 15.8679 39.1941C15.7073 39.0096 15.634 38.7819 15.6454 38.5601C15.6565 38.3379 15.7522 38.122 15.9298 37.9599L16.3174 37.6092C16.884 37.0801 17.6426 36.7865 18.4509 36.7865C19.3488 36.7865 20.1693 37.166 20.7705 37.8313C21.2996 38.3983 21.5531 39.1525 21.5531 39.9605C21.5531 39.9619 21.5531 39.963 21.5531 39.9645C21.5531 39.966 21.5531 39.9678 21.5531 39.9693C21.5531 40.8671 21.2108 41.7086 20.5454 42.3102L18.5799 44.1059H20.7609C21.2495 44.1059 21.6319 44.5377 21.6319 45.0333C21.6319 45.5218 21.2495 45.948 20.7609 45.948H16.3406C16.0584 45.948 15.8141 45.8136 15.6624 45.6312C15.3433 45.2819 15.3636 44.7153 15.7143 44.3808L19.4136 41.0315C19.7172 40.7592 19.8771 40.3922 19.8771 39.9697C19.8767 39.6097 19.75 39.2763 19.5109 39.0044Z" fill="#94D5D2"></path>
                                    <path d="M25.9737 42.6315V40.1414L23.9286 42.6315H25.9737Z" fill="#94D5D2"></path>
                                    <path d="M15.7139 44.38C15.3632 44.7149 15.3429 45.2812 15.662 45.6305C15.8138 45.8128 16.058 45.9473 16.3402 45.9473H20.7598C21.2483 45.9473 21.6308 45.521 21.6308 45.0325C21.6308 44.537 21.2483 44.1052 20.7598 44.1052H18.5788L20.5443 42.3095C21.2089 41.709 21.5519 40.8598 21.5519 39.9638C21.5519 39.9623 21.5519 39.9612 21.5519 39.9597C21.5519 39.1518 21.2984 38.3976 20.7694 37.8306C20.1681 37.1652 19.3278 36.7858 18.4299 36.7858C17.6216 36.7858 16.873 37.0794 16.3063 37.6085L15.9235 37.9592C15.746 38.1213 15.6524 38.3376 15.6413 38.5594C15.6303 38.7811 15.7047 39.0085 15.8653 39.193C16.184 39.5427 16.7543 39.5707 17.0992 39.2557L17.4849 38.9079C17.7531 38.6717 18.0958 38.5417 18.4494 38.5417C18.8661 38.5417 19.243 38.706 19.5098 39.0037C19.7492 39.2756 19.876 39.6094 19.876 39.9682C19.876 40.3908 19.7157 40.7581 19.4125 41.03L15.7139 44.38Z" fill="#586065"></path>
                                    <path d="M21.4175 42.8511C21.3062 42.9919 21.2414 43.1562 21.227 43.3268C21.2222 43.3854 21.223 43.4447 21.2303 43.5044C21.2591 43.7302 21.377 43.8551 21.5505 43.9859C21.6957 44.1167 21.8802 44.1056 22.1234 44.1056H25.9767V45.0256C25.9767 45.5141 26.225 45.8965 26.7136 45.8965C27.2021 45.8965 27.4504 45.5141 27.4504 45.0256V44.2589C28.1873 44.2294 28.2742 43.8584 28.2742 43.3898C28.2742 42.9293 28.1873 42.5512 27.4504 42.521V37.6221C27.4504 37.5798 27.5097 37.5473 27.5068 37.5595C27.5068 37.5193 27.5414 37.4781 27.52 37.4254L27.5285 37.3959C27.5285 37.3959 27.5396 37.4037 27.5407 37.4136C27.5396 37.4114 27.5429 37.4088 27.5414 37.4062L27.5318 37.3517C27.527 37.3344 27.5204 37.3193 27.5149 37.3042C27.5116 37.2953 27.5105 37.2872 27.5053 37.2769L27.4696 37.2077C27.4368 37.1583 27.4161 37.1366 27.4014 37.1207C27.3878 37.1004 27.373 37.0809 27.3395 37.047L27.3303 37.0374C27.3089 37.0061 27.2205 36.9814 27.1874 36.9641C27.1734 36.9538 27.082 36.945 27.082 36.9387V36.9376C27.082 36.9306 27.1203 36.9236 27.1078 36.9166L27.1063 36.9144L27.0521 36.8381L26.9921 36.8322C26.9862 36.83 26.9877 36.7932 26.9821 36.7913L26.9751 36.7372H26.8996H26.8609H26.5294L26.4763 36.7906C26.4608 36.7943 26.4406 36.812 26.4181 36.8216C26.3901 36.8293 26.3591 36.8496 26.33 36.8746C26.3072 36.8831 26.2891 36.8963 26.274 36.9044L26.2284 36.9365C26.2085 36.9498 26.1897 36.9649 26.1856 36.9719L26.1801 36.9737L26.1097 36.9988L21.4175 42.8511ZM25.9767 42.6319H23.9316L25.9767 40.1418V42.6319Z" fill="#586065"></path>
                                    <path d="M29.5872 45.894C29.5949 45.894 29.6019 45.8958 29.6097 45.8958C30.1052 45.8958 30.3951 45.5134 30.3951 45.0249V42.2065C30.3951 41.5625 31.045 41.0496 31.6754 41.0389C32.319 41.0496 32.9741 41.5717 32.9741 42.2032V45.0249C32.9741 45.5134 33.2224 45.8958 33.7109 45.8958C34.1995 45.8958 34.4478 45.5134 34.4478 45.0249V42.2032C34.4478 40.5939 33.1469 39.2849 31.5442 39.2849C31.1673 39.2849 30.7636 39.3696 30.3951 39.538V37.6587C30.3951 37.1705 30.1476 36.7881 29.652 36.7881C29.172 36.7881 28.9214 37.1786 28.9214 37.6587V45.0249C28.9214 45.1115 28.854 45.1914 28.8695 45.2533C28.9822 45.6243 29.2221 45.8833 29.5872 45.894Z" fill="#586065"></path>
                                </g>
                                <defs>
                                    <clipPath id="clip0_645_1114">
                                        <rect width="50" height="50" fill="white"></rect>
                                    </clipPath>
                                </defs>
                            </svg>