<svg xmlns="http://www.w3.org/2000/svg" width="51" height="50" viewBox="0 0 51 50" fill="none">
                                <g clip-path="url(#clip0_645_1100)">
                                    <path d="M2.73877 31.4758C2.73877 34.2375 5.28056 36.484 8.40481 36.484H42.5951C45.7194 36.484 48.2612 34.2371 48.2612 31.4758V24.2819H2.73877V31.4758ZM7.58952 26.5904H33.3358C33.9541 26.5904 34.4552 27.0333 34.4552 27.5797C34.4552 28.1262 33.9541 28.5691 33.3358 28.5691H7.58952C6.97123 28.5691 6.47011 28.1262 6.47011 27.5797C6.47011 27.0333 6.97123 26.5904 7.58952 26.5904ZM7.58952 30.5478H21.7686C22.3869 30.5478 22.888 30.9907 22.888 31.5372C22.888 32.0836 22.3869 32.5265 21.7686 32.5265H7.58952C6.97123 32.5265 6.47011 32.0836 6.47011 31.5372C6.47011 30.9907 6.97123 30.5478 7.58952 30.5478Z" fill="#FFEB97"></path>
                                    <path d="M2.73877 22.3032H48.2612V15.0479H2.73877V22.3032ZM35.9477 17.3564H42.6641C43.2824 17.3564 43.7836 17.7993 43.7836 18.3457C43.7836 18.8922 43.2824 19.3351 42.6641 19.3351H35.9477C35.3294 19.3351 34.8283 18.8922 34.8283 18.3457C34.8283 17.7993 35.3294 17.3564 35.9477 17.3564Z" fill="#94D5D2"></path>
                                    <path d="M42.5951 9.44128H8.40481C5.82272 9.44128 3.64287 10.9774 2.96265 13.0689H48.0373C47.357 10.9774 45.1772 9.44128 42.5951 9.44128Z" fill="#FFEB97"></path>
                                    <path d="M42.5951 7.46265H8.40485C4.0459 7.46265 0.5 10.5969 0.5 14.4495V31.4761C0.5 35.3283 4.0459 38.4626 8.40485 38.4626H42.5951C46.9541 38.4626 50.5 35.3283 50.5 31.4758V23.2924V14.4495V14.0584C50.5 13.9763 50.4854 13.8978 50.4638 13.8213C50.103 10.2622 46.7138 7.46265 42.5951 7.46265ZM8.40485 9.44137H42.5951C45.1772 9.44137 47.3571 10.9775 48.0373 13.069H2.96269C3.64291 10.9775 5.82276 9.44137 8.40485 9.44137ZM48.2612 31.4758C48.2612 34.2371 45.7194 36.4839 42.5951 36.4839H8.40485C5.2806 36.4839 2.73881 34.2374 2.73881 31.4758V24.2818H48.2612V31.4758ZM48.2612 22.3031H2.73881V15.0478H48.2612V22.3031Z" fill="#586065"></path>
                                    <path d="M7.5895 28.5691H33.3358C33.954 28.5691 34.4552 28.1262 34.4552 27.5797C34.4552 27.0332 33.954 26.5903 33.3358 26.5903H7.5895C6.97121 26.5903 6.47009 27.0332 6.47009 27.5797C6.47009 28.1262 6.97121 28.5691 7.5895 28.5691Z" fill="#586065"></path>
                                    <path d="M7.5895 32.5265H21.7686C22.3869 32.5265 22.888 32.0835 22.888 31.5371C22.888 30.9906 22.3869 30.5477 21.7686 30.5477H7.5895C6.97121 30.5477 6.47009 30.9906 6.47009 31.5371C6.47009 32.0835 6.97121 32.5265 7.5895 32.5265Z" fill="#586065"></path>
                                    <path d="M35.9478 19.335H42.6642C43.2825 19.335 43.7836 18.8921 43.7836 18.3457C43.7836 17.7992 43.2825 17.3563 42.6642 17.3563H35.9478C35.3295 17.3563 34.8284 17.7992 34.8284 18.3457C34.8284 18.8921 35.3295 19.335 35.9478 19.335Z" fill="#586065"></path>
                                </g>
                                <defs>
                                    <clipPath id="clip0_645_1100">
                                        <rect width="50" height="50" fill="white" transform="translate(0.5)"></rect>
                                    </clipPath>
                                </defs>
                            </svg>