<svg xmlns="http://www.w3.org/2000/svg" width="50" height="51" viewBox="0 0 50 51" fill="none"><path d="M42.045 17.937V23.9h3.382c1.247 0 2.3 1.095 2.3 2.39v5.537c0 1.268-1.031 2.3-2.3 2.3h-1.261a5.56 5.56 0 0 0-5.34-4.04 5.56 5.56 0 0 0-5.34 4.04h-.531v-18.56h6.66c1.295 0 2.43 1.107 2.43 2.369Zm-3.03.282h-3.409v5.682h3.41v-5.682Z" fill="#fff"/><path d="M7.955 11.78h22.727v9.848H2.272v-4.166a5.688 5.688 0 0 1 5.683-5.682Z" fill="#94D5D2"/><path d="M30.682 34.129H16.515c-.662-2.33-2.803-4.041-5.34-4.041a5.56 5.56 0 0 0-5.34 4.04H2.272V23.902h28.409V34.13Z" fill="#FFEB97"/><path d="M7.955 9.507h25v3.788h6.66c2.55 0 4.703 2.126 4.703 4.642v3.691h1.11c2.52 0 4.572 2.092 4.572 4.663v5.537a4.578 4.578 0 0 1-4.573 4.573h-1.104c-.372 2.705-2.692 4.797-5.497 4.797-2.806 0-5.126-2.092-5.498-4.797H16.672c-.372 2.705-2.692 4.797-5.498 4.797-2.805 0-5.125-2.092-5.497-4.797H0v-18.94c0-4.385 3.569-7.954 7.955-7.954Zm30.87 29.419a3.287 3.287 0 0 0 3.283-3.283 3.286 3.286 0 0 0-3.282-3.283 3.286 3.286 0 0 0-3.283 3.283 3.286 3.286 0 0 0 3.283 3.283Zm-5.87-4.797h.53c.662-2.33 2.803-4.042 5.34-4.042a5.56 5.56 0 0 1 5.34 4.041h1.262c1.269 0 2.3-1.032 2.3-2.3V26.29c0-1.295-1.053-2.39-2.3-2.39h-3.382v-5.964c0-1.262-1.135-2.37-2.43-2.37h-6.66V34.13Zm-21.78 4.797a3.287 3.287 0 0 0 3.282-3.283 3.286 3.286 0 0 0-3.283-3.283 3.286 3.286 0 0 0-3.282 3.283 3.286 3.286 0 0 0 3.282 3.283Zm-8.902-4.797h3.561c.661-2.33 2.802-4.041 5.34-4.041s4.679 1.712 5.34 4.04h14.168V23.902H2.272V34.13Zm0-12.5h28.409v-9.85H7.955a5.688 5.688 0 0 0-5.682 5.683v4.166Z" fill="#586065"/><path d="M35.606 18.22h3.41v5.68h-3.41v-5.68Z" fill="#586065"/></svg>